<svg width="52" height="30" viewBox="0 0 52 30" fill="none" xmlns="http://www.w3.org/2000/svg">
<path d="M20.6006 0.132568C18.7326 0.304929 15.6849 0.994368 13.7677 1.68381C11.2853 2.59485 9.17148 3.89986 7.54928 5.54959C6.34492 6.73148 5.06682 8.72593 5.31261 8.97216C5.36177 9.0214 5.75503 8.99678 6.19745 8.92291C6.76276 8.7998 6.91023 8.70131 6.66445 8.55357C6.39408 8.38121 6.41866 8.28272 6.7136 8.08574C6.98397 7.91338 7.15602 7.96262 7.37723 8.23347C7.59844 8.55357 8.01628 8.60282 9.58932 8.50432C10.6462 8.43046 11.0641 8.45508 10.5233 8.52895C9.76137 8.67668 9.63848 8.75055 10.0072 8.89829C10.2775 8.99678 10.4004 9.21839 10.3021 9.46461C10.1792 9.76009 10.253 9.83396 10.5479 9.71084C10.7445 9.63697 11.2361 9.56311 11.5802 9.56311C11.998 9.56311 12.1209 9.48924 11.9489 9.36612C11.7768 9.26763 11.6785 8.92291 11.7031 8.62744C11.7277 8.15961 11.8752 8.08574 12.7354 8.11036C13.6694 8.13498 13.694 8.15961 12.9812 8.33197C12.5879 8.43046 12.3913 8.52895 12.5879 8.55357C12.7846 8.57819 12.8583 8.75055 12.8091 9.0214C12.7108 9.39075 12.8337 9.43999 13.6448 9.36612C14.4068 9.29225 14.5297 9.19376 14.3085 8.92291C14.161 8.75055 14.1118 8.50432 14.1856 8.35659C14.2593 8.23347 14.1856 8.06111 14.0381 8.01187C13.866 7.938 14.333 7.88875 15.0704 7.88875C16.1764 7.88875 16.2993 7.938 15.6849 8.08574C15.2916 8.18423 15.095 8.28272 15.2916 8.30734C15.4637 8.30734 15.562 8.4797 15.4637 8.70131C15.3653 8.99678 15.5128 9.07065 16.1519 9.07065C16.8646 9.07065 16.963 8.99678 16.8646 8.60282C16.6926 7.91338 17.5037 7.56866 19.0522 7.64253C20.1828 7.71639 20.3548 7.79026 20.3303 8.20885C20.3303 8.62744 20.4532 8.70131 21.1414 8.62744C21.5838 8.57819 21.8787 8.43046 21.805 8.28272C21.5838 7.91338 22.1737 7.3963 22.8373 7.3963C23.3043 7.3963 23.378 7.47017 23.1568 7.6179C22.9602 7.74102 22.911 7.83951 23.0339 7.83951C23.1568 7.83951 23.1077 8.01187 22.9356 8.20885C22.6652 8.52895 22.7636 8.57819 23.6976 8.57819C24.4841 8.57819 24.6807 8.50432 24.4841 8.30734C24.14 7.96262 24.3366 7.34705 24.779 7.34705C25.246 7.34705 25.6639 7.96262 25.3935 8.23347C25.2214 8.40583 25.4426 8.45508 25.9834 8.38121C26.5733 8.30734 26.7945 8.15961 26.7699 7.88875C26.7453 7.54404 27.0894 7.44554 28.7116 7.34705C31.3907 7.17469 32.6442 7.34705 32.6197 7.91338C32.5951 8.20885 32.7671 8.33197 33.3079 8.33197C33.7011 8.33197 33.9715 8.23347 33.8978 8.11036C33.6765 7.79026 34.4385 7.27318 34.8809 7.44554C35.1021 7.51941 35.225 7.74102 35.1513 7.938C35.053 8.18423 35.2496 8.30734 35.8395 8.38121C36.454 8.45508 36.6014 8.40583 36.4294 8.18423C36.2819 8.01187 36.3311 7.81489 36.5523 7.59328C37.0438 7.22394 37.5108 7.51941 37.3634 8.11036C37.2651 8.50432 37.3634 8.57819 38.0516 8.57819C38.7398 8.57819 38.8381 8.50432 38.7398 8.08574C38.6415 7.71639 38.7398 7.59328 39.0839 7.59328C39.7475 7.59328 39.9441 7.83951 39.6246 8.2581C39.4034 8.50432 39.5263 8.57819 40.2145 8.57819C40.9027 8.57819 41.0748 8.50432 40.9765 8.20885C40.8781 7.98725 40.9519 7.83951 41.1485 7.83951C41.3943 7.83951 41.3943 7.76564 41.1731 7.54404C40.7798 7.15007 40.8044 6.8546 41.2468 6.8546C41.4435 6.8546 41.6155 6.78073 41.6155 6.70686C41.6155 6.63299 41.4435 6.41139 41.2468 6.2144C41.0502 5.9928 40.8781 5.94355 40.8781 6.09129C40.8781 6.23903 40.6569 6.36214 40.3866 6.36214C40.1162 6.36214 39.895 6.18978 39.895 5.9928C39.895 5.79582 40.0179 5.62346 40.1654 5.62346C40.362 5.62346 40.3374 5.50034 40.1408 5.25411C39.9196 4.98326 39.7475 4.93402 39.5509 5.131C39.2314 5.4511 38.4203 5.4511 38.4203 5.131C38.4203 4.98326 38.5923 4.8109 38.7889 4.73703C39.133 4.5893 39.1085 4.54005 38.7398 4.2692C38.3957 3.99835 38.2728 4.02297 38.027 4.36769C37.7812 4.68779 37.6583 4.71241 37.3879 4.44156C37.1176 4.17071 37.1422 4.09684 37.4125 3.92448C37.6829 3.75212 37.6583 3.65363 37.2651 3.45665C36.9209 3.25967 36.6997 3.25967 36.5031 3.45665C36.3556 3.60439 36.0607 3.65363 35.8395 3.55514C35.52 3.43203 35.4708 3.33353 35.692 3.06268C36.1098 2.57023 35.2987 2.324 34.8072 2.79183C34.3648 3.25967 33.9223 3.03806 34.119 2.42249C34.2173 2.12702 34.0944 1.95466 33.7503 1.85617C33.4308 1.7823 33.2587 1.85617 33.2587 2.07777C33.2587 2.27475 33.0375 2.42249 32.7671 2.42249C32.2264 2.42249 32.0789 1.7823 32.5951 1.60994C32.7426 1.56069 32.5951 1.4622 32.2264 1.38833C31.7348 1.28984 31.5382 1.36371 31.5382 1.58531C31.5382 1.7823 31.317 1.93003 31.0466 1.93003C30.5059 1.93003 30.3584 1.31446 30.8746 1.11748C31.0466 1.01899 31.022 0.969745 30.7517 0.969745C30.5305 0.945122 30.1618 0.871253 29.9652 0.797384C29.6702 0.674271 29.5965 0.748139 29.7194 1.04361C29.7931 1.26522 29.7439 1.4622 29.5965 1.4622C28.8345 1.58531 28.7116 1.51145 28.7116 1.06824C28.7116 0.526534 28.0234 0.280306 26.5241 0.23106C25.7376 0.206437 25.6393 0.255683 25.8605 0.551157C26.3029 1.09286 25.8851 1.19135 23.4518 1.16673C21.7067 1.1421 21.2151 1.06824 21.2151 0.797384C21.2151 0.403419 22.0999 0.329552 22.3211 0.698894C22.5669 1.09286 23.0093 0.994368 22.8373 0.575779C22.739 0.280306 22.911 0.206437 23.7467 0.23106C24.312 0.23106 24.6315 0.304929 24.4841 0.378797C24.0662 0.526534 24.0908 0.945122 24.5087 0.945122C25.0002 0.945122 25.1969 0.280306 24.7544 0.107945C24.3612 -0.0397911 22.3703 -0.0397911 20.6006 0.132568ZM20.4777 0.969745C20.4777 1.36371 19.7158 1.51145 19.4208 1.21597C19.1996 0.994368 19.1996 0.871253 19.47 0.723516C19.8633 0.477288 20.4777 0.625025 20.4777 0.969745ZM27.7531 0.723516C27.9988 1.1421 27.4335 1.60994 27.0894 1.26522C26.7945 0.969745 26.9911 0.452665 27.3598 0.452665C27.4827 0.452665 27.6547 0.575779 27.7531 0.723516ZM18.5114 1.31446C18.5114 1.51145 18.2902 1.68381 18.0199 1.68381C17.7495 1.68381 17.5283 1.51145 17.5283 1.31446C17.5283 1.11748 17.7495 0.945122 18.0199 0.945122C18.2902 0.945122 18.5114 1.11748 18.5114 1.31446ZM16.7909 1.80692C16.7909 2.0039 16.5697 2.17626 16.2993 2.17626C16.029 2.17626 15.8078 2.0039 15.8078 1.80692C15.8078 1.60994 16.029 1.43758 16.2993 1.43758C16.5697 1.43758 16.7909 1.60994 16.7909 1.80692ZM14.9475 2.17626C15.0212 2.29938 15.0458 2.52098 14.9475 2.66872C14.7509 2.98881 14.0872 2.69334 14.0872 2.27475C14.0872 1.88079 14.7263 1.80692 14.9475 2.17626ZM13.3745 3.03806C13.3745 3.16117 13.1532 3.30891 12.8583 3.35816C12.3667 3.43203 12.1947 3.16117 12.5388 2.81646C12.7846 2.59485 13.3745 2.74259 13.3745 3.03806ZM11.8752 3.89986C11.8752 4.02297 11.7523 4.19533 11.6048 4.29382C11.2607 4.49081 10.7937 4.02297 10.9903 3.67825C11.1624 3.4074 11.8752 3.57976 11.8752 3.89986ZM10.4004 4.63854C10.7199 4.86015 10.7199 4.90939 10.4004 5.10638C9.98258 5.40185 9.66306 5.22949 9.66306 4.73703C9.66306 4.34307 9.88427 4.29382 10.4004 4.63854ZM9.36811 5.91893C9.19606 6.38676 8.43412 6.46063 8.43412 6.01742C8.43412 5.77119 8.65533 5.62346 8.95027 5.62346C9.24522 5.62346 9.41727 5.74657 9.36811 5.91893ZM8.3358 6.87922C8.58159 7.29781 8.01628 7.76564 7.67218 7.42092C7.37723 7.12545 7.57386 6.60837 7.94254 6.60837C8.06544 6.60837 8.23749 6.73148 8.3358 6.87922ZM21.5346 7.51941C21.3626 7.56866 21.0676 7.56866 20.9202 7.51941C20.7481 7.44554 20.871 7.3963 21.2151 7.3963C21.5592 7.3963 21.6821 7.44554 21.5346 7.51941Z" fill="black"/>
<path d="M41.8859 7.42085C41.6893 7.6917 41.6647 7.83944 41.8613 7.96256C42.0088 8.03642 42.058 8.20878 41.9842 8.3319C41.8368 8.57813 43.2869 8.94747 43.5081 8.72586C43.6064 8.65199 43.5327 8.57813 43.3607 8.57813C43.164 8.57813 43.0903 8.40577 43.1886 8.20878C43.2623 7.98718 43.1886 7.83944 42.9674 7.83944C42.7708 7.83944 42.525 7.66708 42.4021 7.44548C42.23 7.12538 42.1563 7.12538 41.8859 7.42085Z" fill="black"/>
<path d="M31.145 7.81481C31.2433 7.93793 31.145 8.11028 30.9975 8.15953C30.8255 8.2334 30.9238 8.30727 31.2187 8.30727C31.612 8.33189 31.7349 8.2334 31.6366 7.96255C31.5382 7.76557 31.3908 7.59321 31.2433 7.59321C31.1204 7.59321 31.0712 7.6917 31.145 7.81481Z" fill="black"/>
<path d="M17.8726 8.3319C17.8726 8.75049 18.0446 8.82436 18.8803 8.79973C19.421 8.79973 19.716 8.72586 19.5685 8.652C19.3964 8.60275 19.249 8.38114 19.249 8.18416C19.249 7.96256 19.0032 7.83944 18.5608 7.83944C18.0446 7.83944 17.8726 7.96256 17.8726 8.3319Z" fill="black"/>
<path d="M27.9742 8.08568C27.8759 8.23342 28.048 8.33191 28.3183 8.33191C28.9328 8.33191 28.982 8.18417 28.4658 8.01181C28.2692 7.91332 28.048 7.96257 27.9742 8.08568Z" fill="black"/>
<path d="M44.1963 8.06103C44.2946 8.25802 44.2454 8.47962 44.0488 8.60274C43.803 8.75047 43.9996 8.82434 44.5895 8.82434C45.204 8.82434 45.4744 8.72585 45.4744 8.455C45.4744 8.25802 45.3269 8.08566 45.1548 8.08566C44.9828 8.08566 44.6633 8.01179 44.4175 7.9133C44.1225 7.79018 44.0488 7.83943 44.1963 8.06103Z" fill="black"/>
<path d="M46.3592 8.258C46.4575 8.33187 46.4084 8.55348 46.2609 8.75046C46.0397 8.99669 46.1134 9.07056 46.6296 9.07056C46.9983 9.07056 47.4653 8.92282 47.6373 8.72584C47.9322 8.43036 47.9077 8.3565 47.4407 8.23338C46.7279 8.0364 46.1626 8.0364 46.3592 8.258Z" fill="black"/>
<path d="M7.69673 9.07064C7.35262 9.16913 7.22973 9.26762 7.42636 9.29224C7.62299 9.31686 7.69673 9.48922 7.64757 9.76007C7.54926 10.1294 7.64757 10.1787 8.3112 10.1048C8.97483 10.0309 9.1223 9.90781 9.07314 9.41535C9.04856 8.79978 8.7782 8.72592 7.69673 9.07064Z" fill="black"/>
<path d="M36.6998 9.21838C36.2328 9.41536 35.5446 9.85857 35.2005 10.2033L34.5614 10.8189L33.5291 10.2772C32.546 9.76008 32.3739 9.76008 30.6042 10.0309C29.5719 10.2033 27.9497 10.4495 26.9911 10.548C26.0571 10.6711 24.6316 10.8927 23.8451 11.0158C23.0585 11.1636 22.272 11.2128 22.1 11.139C21.6821 10.9666 16.5206 11.9515 16.2256 12.247C16.1027 12.3701 15.6603 12.3455 15.1687 12.1977C14.5543 12.0008 13.8415 12.05 12.2193 12.3701C9.31898 12.9364 9.26982 12.9857 9.07319 14.66C8.55704 19.4122 8.33583 21.0373 8.18836 21.3328C8.09004 21.5298 7.6722 20.8403 7.10689 19.6092C6.59074 18.4766 6.12374 17.5409 6.09916 17.4916C6.05 17.4424 5.80421 17.5409 5.53385 17.7133C5.14059 17.9595 4.96853 17.9595 4.64901 17.7133C4.32949 17.4424 4.32949 17.5163 4.67359 18.4027C5.04227 19.3137 5.09143 19.363 5.583 19.0429C6.22205 18.6243 6.8611 18.9198 6.61531 19.5353C6.517 19.8308 6.27121 19.9293 5.90253 19.8554C5.3618 19.7569 5.33722 19.7569 5.7059 20.5449C6.00084 21.2097 6.12374 21.2836 6.46784 21.062C6.984 20.7419 7.69678 20.9881 7.69678 21.5052C7.69678 21.7268 7.47557 21.8745 7.08231 21.8745C6.36953 21.8745 6.36953 21.8745 6.76279 22.7117C6.984 23.2041 7.10689 23.278 7.37726 23.081C7.54931 22.9333 7.91799 22.8594 8.18836 22.9333C8.58162 23.0318 8.63078 22.9825 8.43415 22.6132C8.04088 21.8745 8.1392 21.8253 8.92572 22.2685C9.56477 22.6624 9.78598 22.6871 10.9412 22.3916C11.654 22.2192 12.4651 21.9238 12.76 21.7514C13.055 21.5544 13.3991 21.5052 13.5957 21.6283C14.161 21.973 17.3317 21.7268 19.8141 21.1358C21.7559 20.668 22.3457 20.6187 22.7144 20.8403C23.0831 21.0866 23.5255 21.0373 24.9019 20.668C25.8359 20.4218 26.8928 20.274 27.2124 20.3233C27.8268 20.4464 30.3339 19.7323 30.5796 19.3876C30.6534 19.2645 31.0466 19.2891 31.4645 19.4615C32.0544 19.6831 32.3985 19.6585 33.2342 19.3137C34.119 18.969 34.4385 18.969 35.2742 19.2152C36.0361 19.4368 36.5031 19.4368 37.3634 19.2152C38.5923 18.8705 40.4112 17.7133 40.9765 16.9253C41.296 16.4329 41.3452 16.4329 41.9596 16.8268C42.4758 17.1715 42.8936 17.2208 43.9505 17.0731C45.204 16.9253 45.3269 16.8515 45.4744 16.2113C45.5481 15.7434 45.7693 15.4726 46.1135 15.4233C46.5313 15.3741 46.6788 15.1032 46.8508 14.1183C47.0229 13.0103 46.9983 12.8626 46.5559 12.5425C46.2609 12.3701 46.0397 12.05 46.0397 11.8776C46.0397 11.1636 44.9091 10.745 43.5327 10.9174C42.3037 11.0651 42.1808 11.0405 41.9351 10.4988C41.591 9.73546 39.723 8.82442 38.5186 8.82442C38.0024 8.84904 37.1668 9.0214 36.6998 9.21838ZM39.7967 9.51386C40.4357 9.95707 40.8782 10.9912 40.8782 12.0254C40.8782 13.158 40.8782 13.158 41.591 13.0595C42.1563 12.9857 42.3529 12.7887 42.4758 12.2716C42.6233 11.6068 43.1394 11.2867 44.098 11.2867C44.3929 11.2867 44.4667 11.4591 44.3684 11.9023C44.2946 12.3947 44.3684 12.5178 44.7862 12.5178C45.2532 12.5178 45.3269 12.641 45.2532 13.4289C45.204 14.1676 45.0566 14.3645 44.565 14.4877C44.1226 14.5862 43.9259 14.8324 43.8768 15.2756C43.8276 15.6942 43.6064 15.965 43.2623 16.0635C42.3037 16.3098 42.1071 16.2359 42.1071 15.4972C42.1071 14.8816 42.0334 14.8078 41.4926 14.9309C40.9273 15.0294 40.8782 14.9555 40.8782 14.2168C40.8782 13.3796 40.8782 13.3796 40.2883 14.6108C39.0348 17.3193 35.6675 19.2152 34.1436 18.058C33.7503 17.7625 33.5291 17.7871 32.4476 18.2057C31.0466 18.7474 31.1941 18.8459 30.1126 16.753L29.449 15.4233L29.2032 17.0731L28.9574 18.7228L27.9006 19.0921C27.3107 19.2891 26.7699 19.3876 26.7208 19.3384C26.647 19.2891 26.8191 17.4178 27.0649 15.2017L27.5073 11.1636L29.0803 10.745C32.3002 9.93244 33.5045 10.2525 33.5045 11.9515C33.5045 12.6656 33.3079 13.0349 32.4476 13.8967L31.3907 14.9555L32.2264 16.0143C33.4062 17.5409 33.5783 17.664 33.2587 16.8268C32.4722 14.7339 34.3402 10.9912 36.8227 9.71084C37.5846 9.31687 39.3297 9.19376 39.7967 9.51386ZM27.1632 11.8038C27.0895 12.3701 26.8682 12.6163 26.3767 12.8133C25.6147 13.0595 25.541 13.355 25.246 17.2454L25.074 19.363L24.0171 19.6338C22.6407 19.9785 22.1983 19.9785 22.3212 19.5846C22.3949 19.4368 22.5915 17.9349 22.7636 16.2605L23.0831 13.2565H22.3949C22.0262 13.2565 21.7067 13.1334 21.7067 13.0103C21.7067 12.8379 21.5592 12.8379 21.2397 13.0103C20.9693 13.1334 20.3549 13.2565 19.8879 13.2565C19.0276 13.2565 19.003 13.2811 19.003 14.2661V15.3002L19.9862 15.1525C20.9202 15.0294 20.9693 15.054 20.9693 15.7188C20.9693 16.3344 20.871 16.4082 19.8879 16.556C18.8801 16.7037 18.8064 16.7776 18.6835 17.6148C18.5852 18.1318 18.5852 18.575 18.6343 18.6243C18.6835 18.6982 19.1751 18.6243 19.7404 18.4766C20.7235 18.2303 20.7235 18.2303 20.7235 18.9444C20.7235 19.7077 20.7235 19.7077 17.3563 20.4956C16.029 20.7911 15.8078 20.7911 15.8078 20.4956C15.8078 20.0524 15.7832 20.077 14.5788 20.5449C14.0135 20.7665 13.5465 20.9142 13.4974 20.865C13.4482 20.8157 13.0304 20.0524 12.588 19.166L11.7769 17.5655L11.6048 19.1168C11.5311 19.9785 11.359 20.7665 11.2361 20.865C10.9412 21.1358 9.17151 21.7021 9.02404 21.579C8.97488 21.5052 9.09777 20.2002 9.2944 18.6735C9.49103 17.1223 9.66309 15.3495 9.66309 14.6846V13.5274L10.9658 13.158C12.7354 12.641 14.4314 12.444 15.0704 12.641C16.3485 13.0595 16.1273 14.8816 14.6034 16.3836L13.7923 17.1469L14.7263 18.4027C15.2425 19.0921 15.7341 19.5846 15.8324 19.4615C15.9061 19.363 16.1273 18.058 16.2748 16.5806C16.7909 11.9515 16.5452 12.4193 18.7081 12.05C19.7404 11.8776 21.3872 11.6807 22.3212 11.6314C23.2797 11.5822 24.7053 11.3852 25.5164 11.2128C26.3275 11.0405 27.0649 10.9174 27.1386 10.942C27.2124 10.9912 27.2369 11.3606 27.1632 11.8038ZM22.1983 14.6354C22.1983 15.054 22.1491 15.054 21.3134 14.6846L20.6498 14.3645L21.2397 14.2168C21.9525 14.0445 22.1983 14.1429 22.1983 14.6354ZM21.9525 17.8117C21.9525 18.2303 21.9033 18.255 21.3626 18.0333C20.7973 17.8117 20.871 17.4424 21.4609 17.4424C21.7313 17.4424 21.9525 17.6148 21.9525 17.8117Z" fill="black"/>
<path d="M37.2896 12.0253C36.4785 12.3454 35.7412 13.5765 35.5691 14.8323C35.4216 15.768 35.4708 15.9896 35.8395 16.1127C37.1421 16.6298 38.7398 14.8569 38.6169 13.0102C38.5431 11.8283 38.2482 11.6313 37.2896 12.0253ZM37.6829 14.7338C37.2896 15.4971 37.1176 15.2016 37.4617 14.3398C37.6091 13.9459 37.7812 13.7489 37.8549 13.9213C37.9041 14.0936 37.8304 14.463 37.6829 14.7338Z" fill="black"/>
<path d="M30.2847 12.1977C29.9161 12.2962 29.4736 13.6997 29.7194 13.9706C29.8177 14.0937 30.85 13.4289 31.3908 12.8872C32.0544 12.1977 31.5137 11.853 30.2847 12.1977Z" fill="black"/>
<path d="M12.5635 14.4138C12.244 14.4876 12.1211 14.7831 12.1211 15.374C12.1211 16.2851 12.1457 16.3097 13.4238 15.4233C14.6036 14.5861 14.112 13.9952 12.5635 14.4138Z" fill="black"/>
<path d="M5.50922 9.36602C4.59981 9.563 4.47691 9.66149 4.8456 9.85848C5.1897 10.0555 5.21428 10.1786 4.96849 10.4494C4.74728 10.7203 4.74728 10.7941 5.01765 10.6957C5.21428 10.6464 5.68128 10.5233 6.04996 10.4248C6.59069 10.3263 6.68901 10.2032 6.49238 9.95697C6.32032 9.73536 6.32032 9.563 6.51695 9.36602C6.68901 9.19366 6.76274 9.07055 6.71358 9.09517C6.63985 9.11979 6.09911 9.24291 5.50922 9.36602Z" fill="black"/>
<path d="M48.1782 9.41538C47.5883 9.85859 47.662 10.1787 48.3748 10.2033C48.8172 10.2279 48.9893 10.1294 48.9893 9.80934C48.9893 9.19377 48.6943 9.04604 48.1782 9.41538Z" fill="black"/>
<path d="M3.27252 9.83395C2.486 10.154 1.552 11.0405 1.552 11.4591C1.552 11.8776 4.03446 17.1962 4.23109 17.1962C4.30483 17.1962 4.55062 17.0977 4.72267 16.9746C4.94388 16.8268 5.2634 16.8268 5.53377 16.9746C5.95161 17.1962 5.95161 17.1715 5.58293 16.359C5.23882 15.6449 5.09135 15.5464 4.74725 15.768C4.23109 16.0881 3.51831 15.8665 3.51831 15.3741C3.51831 14.9062 4.23109 14.66 4.64893 15.0047C5.14051 15.4233 5.09135 15.1771 4.20651 13.3796C3.54289 12.0254 3.44457 11.6807 3.71494 11.2867C3.86241 11.0405 3.93615 10.6219 3.83783 10.4003C3.76409 10.1787 3.83783 9.90781 4.03446 9.7847C4.47688 9.48923 4.03446 9.53847 3.27252 9.83395ZM3.14962 11.5329C3.14962 11.9761 2.33852 12.1731 1.99442 11.8284C1.84695 11.6807 1.82237 11.4591 1.92068 11.2867C2.16647 10.8927 3.14962 11.0897 3.14962 11.5329ZM3.76409 13.1334C4.13278 13.5766 3.88699 13.9952 3.27252 13.9952C3.02673 13.9952 2.73178 13.8721 2.65805 13.749C2.486 13.4781 2.95299 12.7641 3.27252 12.7641C3.37083 12.7641 3.59204 12.9364 3.76409 13.1334Z" fill="black"/>
<path d="M47.6375 11.0158C47.3179 11.3112 47.5883 11.7298 48.129 11.8283C48.6206 11.9268 48.7435 11.8529 48.7435 11.4344C48.7435 11.065 48.596 10.8927 48.2519 10.8927C47.957 10.8927 47.6866 10.9419 47.6375 11.0158Z" fill="black"/>
<path d="M0.986802 11.4344C0.765593 12.0746 0.667277 11.853 3.32179 17.7871C4.52615 20.4956 5.46014 22.8348 5.38641 23.0071C5.31267 23.1795 4.74736 23.4011 4.13289 23.4996C3.49384 23.5734 2.68274 23.9182 2.33864 24.2383L1.67501 24.78L2.36321 25.0508C3.61673 25.5186 8.8766 25.8387 12.5634 25.6418C16.3486 25.4202 17.6267 25.6418 14.2594 25.888C10.0318 26.2327 4.32952 26.0111 2.48611 25.4202C2.11743 25.297 2.04369 25.4448 2.04369 26.4051C2.04369 27.4885 2.06827 27.5131 2.97768 27.7839C5.09146 28.3749 11.2607 28.5965 17.1105 28.301C23.4518 27.9809 32.7426 27.2422 37.4372 26.6759C41.6401 26.1835 41.591 26.1835 41.9597 27.0453L42.2546 27.7839L45.4253 25.5186L48.5959 23.2533L46.5313 22.6624C44.5896 22.1207 40.7062 21.1358 40.5095 21.1358C40.4604 21.1358 40.4849 21.3574 40.5587 21.6282C40.7062 22.2192 40.2637 22.2931 40.0425 21.7267C39.7967 21.0865 39.8705 20.6433 40.2392 20.6433C40.7553 20.6433 49.0875 22.884 49.2842 23.081C49.5054 23.278 42.1809 28.5965 41.8859 28.4241C41.763 28.3503 41.6156 27.9563 41.5418 27.5377C41.3452 26.6513 41.4189 26.6513 36.921 27.1684C22.7882 28.8181 6.07461 29.2367 2.80563 28.0056C2.31406 27.8086 2.24032 27.8332 2.43695 28.0302C2.609 28.2025 3.81336 28.498 5.14062 28.695C9.61396 29.3844 26.9666 28.8427 37.4126 27.6855C39.4526 27.4639 40.6078 27.4146 40.8045 27.587C40.9765 27.7101 41.1731 28.3256 41.2715 28.9166C41.3452 29.5075 41.5173 30 41.6401 30C41.763 30 43.1149 29.089 44.6388 27.9563C46.1381 26.8237 48.2518 25.3217 49.3087 24.583C50.341 23.8689 51.2013 23.2041 51.2013 23.1302C51.2013 23.0317 50.3165 22.7855 49.2596 22.5393C47.4407 22.1207 46.5805 21.6775 46.9492 21.3081C47.0229 21.2097 46.8754 21.1358 46.5805 21.1358C46.2855 21.1358 46.0397 21.0127 46.0397 20.8403C46.0397 20.6187 45.966 20.6187 45.7448 20.8403C45.327 21.2589 44.4913 21.2097 41.8614 20.5202C38.9611 19.7569 38.9119 19.7569 38.9119 20.5202C38.9119 20.9881 38.789 21.1358 38.3712 21.1604C37.9533 21.185 37.9042 21.2097 38.2483 21.3081C38.4695 21.3574 38.6661 21.5544 38.6661 21.7021C38.6661 21.8745 38.7644 21.8498 38.9119 21.6282C39.1085 21.3081 39.1577 21.3081 39.1577 21.6775C39.1577 21.9976 38.789 22.0961 37.0685 22.2438C34.7581 22.4408 33.7503 22.2931 33.7503 21.7514C33.7503 21.5051 33.5046 21.382 33.0376 21.382C32.4477 21.382 32.3494 21.4559 32.4477 21.8498C32.546 22.1946 32.8409 22.3669 33.48 22.4408C34.3157 22.5393 34.2911 22.5393 33.2588 22.5885C32.6443 22.5885 30.9975 22.7855 29.572 22.9825C26.6717 23.4011 25.8851 23.3272 25.8851 22.6132C25.8851 22.2931 25.7377 22.1207 25.4673 22.1453C24.8774 22.1699 23.7222 22.5639 24.1155 22.5885C24.2629 22.6132 24.4104 22.7609 24.4104 22.9579C24.4104 23.1795 24.7299 23.3518 25.2215 23.4257C25.7131 23.4996 25.5656 23.5242 24.7791 23.5242C23.5501 23.5242 22.8374 23.2287 23.0831 22.8348C23.2306 22.5885 22.1983 22.5393 21.5838 22.7609C21.2889 22.884 21.2643 22.9825 21.4855 23.1056C21.9771 23.4257 21.5347 24.1398 20.9202 24.0413C20.527 23.992 20.3549 23.7951 20.3795 23.4503C20.3795 23.0317 20.2566 22.9579 19.765 23.0564C18.5852 23.2287 18.4378 23.3272 18.7327 23.6966C19.0768 24.0905 18.831 24.3368 18.0691 24.3368C17.6021 24.3368 17.5038 24.2383 17.6021 23.8689C17.6758 23.5488 17.6021 23.4257 17.3071 23.4996C15.6849 23.7951 15.4883 23.8935 15.7832 24.0905C16.2748 24.386 15.9307 25.0754 15.2917 25.0754C14.9967 25.0754 14.7264 24.8785 14.6526 24.583C14.5789 24.3121 14.3331 24.0905 14.1119 24.1151C13.5466 24.1398 12.4159 24.5337 12.8092 24.5584C12.9567 24.583 13.1042 24.7553 13.1042 24.9523C13.1042 25.1986 12.8584 25.3217 12.3422 25.3217C11.7277 25.3217 11.6048 25.2478 11.7277 24.9277C11.8506 24.583 11.7523 24.5337 11.0887 24.6815C10.6463 24.7553 10.2284 24.9523 10.1301 25.1001C10.0564 25.2478 9.66312 25.3217 9.26986 25.2478C8.60623 25.1493 8.60623 25.1247 9.09781 24.9769C9.58938 24.78 9.58938 24.7553 9.2207 24.0905C8.8766 23.4996 8.77828 23.4503 8.53249 23.7951C8.36044 24.0167 8.0655 24.1151 7.72139 24.0167L7.20524 23.8935L7.72139 24.6076C7.99176 25.0016 8.09008 25.3217 7.9426 25.3217C7.79513 25.3217 6.56619 23.0317 5.21436 20.2001C1.7979 13.1826 1.50296 12.4932 1.30633 11.656C1.15885 10.9912 1.13427 10.9666 0.986802 11.4344ZM42.3529 22.3669C42.8445 22.0468 44.0734 22.0468 44.0734 22.3669C44.0734 22.6132 43.7293 22.7116 43.0903 22.6132C42.8937 22.5885 42.992 22.7855 43.3361 23.0564C44.2947 23.8443 43.6556 24.2875 41.3206 24.4352C40.2637 24.5091 39.3052 24.6322 39.1577 24.7061C39.0348 24.78 38.9119 24.7061 38.8873 24.5337C38.8873 24.2875 38.8382 24.2875 38.7398 24.5091C38.6907 24.6815 38.3466 24.8292 38.0271 24.8292C37.5601 24.8292 37.4372 24.7061 37.4372 24.189V23.5488L36.7735 24.3368C36.2328 24.9769 35.987 25.1001 35.3726 25.0016C34.9547 24.9523 34.414 25.0016 34.1928 25.1247C33.8487 25.297 33.7503 25.2478 33.7503 24.9031C33.7258 24.4845 33.7258 24.4845 33.4062 24.8785C33.0376 25.3955 32.5214 25.4694 32.4968 25.0016C32.4968 24.7553 32.4477 24.7553 32.3494 25.0016C32.3002 25.1739 32.0298 25.3217 31.784 25.3217C31.317 25.3217 31.317 25.297 31.784 24.2629C32.079 23.6227 32.4231 23.2041 32.7426 23.1549C33.0376 23.1056 33.2588 23.2041 33.2588 23.3765C33.2588 23.5734 33.4062 23.5242 33.7012 23.278C34.3402 22.7116 34.7335 22.7609 34.7335 23.4011C34.7581 23.8689 34.7827 23.8935 34.9793 23.5734C35.1022 23.3518 35.5692 23.0317 35.987 22.8594C36.6752 22.5639 36.7981 22.5639 37.0931 22.9825C37.388 23.4011 37.4372 23.4011 37.4372 23.0317C37.4372 22.4654 38.1745 22.49 38.1991 23.0317C38.2237 23.4257 38.2483 23.4257 38.3466 23.081C38.4695 22.5885 39.9442 22.2931 40.19 22.7116C40.3375 22.9086 40.3866 22.9086 40.3866 22.687C40.3866 22.3669 41.6647 22.1453 41.8614 22.4162C41.9351 22.5147 42.1563 22.49 42.3529 22.3669ZM29.7686 23.8935L29.8915 24.4352L30.0881 23.8935C30.4322 22.9579 30.8746 23.2533 30.678 24.2629C30.4568 25.4694 30.1864 25.7649 29.5965 25.3955C29.2278 25.1493 29.105 25.1739 28.9821 25.4448C28.7854 25.9619 28.343 25.9126 28.3184 25.3709C28.2939 24.9769 28.2693 24.9769 28.171 25.3709C28.0481 25.8634 27.3599 25.9865 27.3599 25.494C27.3599 25.297 26.942 25.1986 26.1309 25.1739C25.4427 25.1739 24.902 25.2478 24.902 25.3709C24.902 25.4694 25.0249 25.5679 25.1723 25.5679C25.6393 25.5679 25.1478 26.0111 24.5333 26.1096C24.0171 26.2327 23.9188 26.1342 23.8942 25.5925L23.8697 24.9523L23.6976 25.5679C23.5747 26.0111 23.3289 26.2081 22.8619 26.2573C22.272 26.3312 22.1983 26.2573 22.1737 25.5186L22.1492 24.7061L21.9771 25.4448C21.8542 26.0111 21.6576 26.2081 21.0185 26.3312C20.4286 26.4543 20.1583 26.4051 19.9862 26.085C19.7896 25.7156 19.765 25.7403 19.6175 26.1096C19.3717 26.7498 18.659 26.6759 18.831 26.0357C18.9539 25.5925 18.9048 25.5925 18.3394 26.1588C17.9953 26.5036 17.43 26.799 17.1105 26.799C16.5206 26.799 16.496 26.7498 16.6681 25.888C16.7664 25.3709 16.8893 24.8785 16.9384 24.78C17.1597 24.4599 18.7573 24.5584 18.7573 24.8785C18.7573 25.0508 18.8802 25.0016 19.0276 24.7553C19.2243 24.4352 19.5684 24.3121 20.3057 24.3368C20.8711 24.3368 21.7067 24.2875 22.1492 24.189C22.8619 24.0413 22.9357 24.0905 22.9603 24.6076C22.9848 25.1247 23.0094 25.1247 23.1077 24.7061C23.2798 24.0413 23.501 23.9182 24.8037 23.8689C25.4919 23.8443 25.8606 23.9428 25.7622 24.0905C25.6885 24.2136 25.4427 24.3368 25.2215 24.3368C25.0003 24.3368 24.902 24.4106 24.9757 24.5091C25.074 24.583 25.6885 24.6815 26.3767 24.6815C27.409 24.7061 27.6056 24.6322 27.6548 24.2136C27.7285 23.7951 28.3922 23.4503 29.277 23.3765C29.4736 23.3518 29.6703 23.5981 29.7686 23.8935Z" fill="black"/>
<path d="M41.124 22.8594C41.124 22.9825 41.2469 23.1056 41.3697 23.1056C41.5172 23.1056 41.6155 23.2041 41.6155 23.3518C41.6155 23.4749 41.4435 23.5981 41.2469 23.5981C41.0502 23.5981 40.8782 23.6965 40.8782 23.8443C40.8782 23.9674 41.124 24.0413 41.4435 23.992C41.7384 23.9182 42.2054 23.8689 42.4512 23.8689C42.8691 23.8443 42.8445 23.7704 42.2546 23.2287C41.5664 22.5885 41.124 22.4408 41.124 22.8594Z" fill="black"/>
<path d="M35.7411 23.8197C35.5936 24.0659 35.5691 24.3368 35.6428 24.4353C35.864 24.6322 36.4539 24.0905 36.4539 23.6966C36.4539 23.2041 36.0115 23.278 35.7411 23.8197Z" fill="black"/>
<path d="M38.9365 23.7459C38.9365 24.0167 39.0102 24.0906 39.0839 23.8936C39.1577 23.7212 39.1331 23.4996 39.0594 23.4258C38.9856 23.3273 38.9119 23.475 38.9365 23.7459Z" fill="black"/>
<path d="M39.9196 23.7459C39.9196 24.0167 39.9934 24.0906 40.0671 23.8936C40.1408 23.7212 40.1162 23.4996 40.0425 23.4258C39.9688 23.3273 39.895 23.475 39.9196 23.7459Z" fill="black"/>
<path d="M28.3676 24.4845C28.3676 24.7554 28.4414 24.8292 28.5151 24.6322C28.5888 24.4599 28.5642 24.2383 28.4905 24.1644C28.4168 24.0659 28.343 24.2137 28.3676 24.4845Z" fill="black"/>
<path d="M19.937 25.0015C20.1091 25.0754 20.3303 25.0508 20.404 24.9769C20.5023 24.903 20.3549 24.8292 20.0845 24.8538C19.8141 24.8538 19.7404 24.9277 19.937 25.0015Z" fill="black"/>
<path d="M20.7235 25.1986C20.5023 25.4694 20.4777 25.6664 20.6498 25.8388C20.8464 26.0358 20.9693 25.9619 21.0922 25.5679C21.3134 24.8785 21.1414 24.7061 20.7235 25.1986Z" fill="black"/>
<path d="M17.7004 25.2232C17.6021 25.3217 17.5283 25.5679 17.5283 25.7895C17.5283 26.0603 17.6021 26.085 17.7987 25.888C17.9462 25.7402 18.0445 25.494 17.9707 25.3217C17.9216 25.1739 17.7987 25.1247 17.7004 25.2232Z" fill="black"/>
<path d="M47.2688 13.0349C47.2688 13.3797 47.3917 13.5028 47.6129 13.4289C47.785 13.355 48.0799 13.4289 48.2274 13.5766C48.424 13.7736 48.4977 13.6751 48.4977 13.1827C48.4977 12.641 48.3748 12.5179 47.8833 12.5179C47.4163 12.5179 47.2688 12.641 47.2688 13.0349Z" fill="black"/>
<path d="M46.6542 16.7037C46.433 18.1318 46.2118 19.5353 46.1135 19.8554C46.0152 20.2986 46.0643 20.3725 46.3838 20.2493C46.605 20.1755 46.9491 20.2247 47.1458 20.3971C47.4653 20.6433 47.5145 20.5941 47.5145 20.0524C47.5145 19.5599 47.3916 19.4122 46.9983 19.4122C46.6542 19.4122 46.5313 19.2891 46.5805 18.969C46.6296 18.7227 46.8754 18.575 47.1949 18.5996C47.5636 18.6489 47.7357 18.5011 47.8094 18.0825C47.9077 17.6147 47.834 17.5408 47.3178 17.6393C46.8508 17.7378 46.7525 17.6639 46.8263 17.2946C46.9 16.9745 47.0966 16.8514 47.4653 16.876C47.8586 16.9253 48.006 16.8021 48.006 16.4574C48.006 16.1127 47.834 15.965 47.4899 15.965C47.1458 15.965 47.0229 15.8419 47.072 15.5218C47.1212 15.2755 47.367 15.1278 47.6865 15.1524C48.0306 15.2017 48.2272 15.0539 48.301 14.66C48.3993 14.2168 48.301 14.1183 47.7357 14.1183C47.072 14.1183 47.072 14.1429 46.6542 16.7037Z" fill="black"/>
<path d="M35.1514 21.6283C35.2251 21.8991 35.4955 22.1207 35.7413 22.1207C36.3312 22.1207 36.6261 21.6283 36.0362 21.6036C35.643 21.6036 35.643 21.579 36.0854 21.382C36.5032 21.2097 36.4541 21.1604 35.7904 21.1604C35.1514 21.1358 35.0531 21.2097 35.1514 21.6283Z" fill="black"/>
<path d="M30.1865 21.6283C29.6458 21.7267 29.3508 21.8252 29.5474 21.8499C29.7441 21.8499 29.8178 22.0468 29.7687 22.3177C29.6703 22.687 29.7932 22.7363 30.6043 22.6378C31.268 22.5885 31.4892 22.4654 31.3417 22.3177C31.1942 22.17 31.1451 21.8991 31.2188 21.7267C31.2925 21.5298 31.3171 21.4066 31.268 21.4066C31.2188 21.4313 30.7272 21.5298 30.1865 21.6283Z" fill="black"/>
<path d="M27.9251 21.8006C27.2369 21.8991 27.114 22.0222 27.114 22.5393C27.114 23.0071 27.2123 23.1303 27.5073 23.0071C27.7285 22.9333 28.1217 22.8594 28.3921 22.8594C28.7854 22.8594 28.8345 22.7855 28.6133 22.5393C28.4167 22.2931 28.4413 22.1207 28.6379 21.9237C28.81 21.7514 28.8837 21.6529 28.8345 21.6775C28.7608 21.6775 28.343 21.7514 27.9251 21.8006Z" fill="black"/>
</svg>
