<svg width="372" height="374" viewBox="0 0 372 374" fill="none" xmlns="http://www.w3.org/2000/svg">
<path d="M349.575 186.843C349.575 276.929 276.545 349.959 186.459 349.959C96.3723 349.959 23.3428 276.929 23.3428 186.843C23.3428 96.7563 96.3723 23.7268 186.459 23.7268C276.545 23.7268 349.575 96.7563 349.575 186.843Z" stroke="black"/>
<path d="M350.075 208.268C338.242 208.268 328.65 198.676 328.65 186.843C328.65 175.01 338.242 165.418 350.075 165.418C361.908 165.418 371.5 175.01 371.5 186.843C371.5 198.676 361.908 208.268 350.075 208.268Z" fill="white" stroke="black"/>
<path d="M331.517 265.639C320.469 261.399 314.951 249.006 319.191 237.959C323.431 226.912 335.824 221.394 346.871 225.634C357.918 229.874 363.436 242.266 359.196 253.313C354.956 264.36 342.564 269.878 331.517 265.639Z" fill="white" stroke="black"/>
<path d="M291.574 282.601C283.611 291.353 284.252 304.904 293.005 312.866C301.757 320.829 315.308 320.188 323.27 311.435C331.233 302.683 330.592 289.132 321.839 281.17C313.087 273.207 299.536 273.848 291.574 282.601Z" fill="white" stroke="black"/>
<path d="M240.247 342.911C234.958 332.326 239.251 319.458 249.836 314.169C260.42 308.88 273.289 313.173 278.578 323.757C283.867 334.342 279.574 347.211 268.989 352.5C258.405 357.789 245.536 353.496 240.247 342.911Z" fill="white" stroke="black"/>
<path d="M180.226 351.751C179.133 339.969 187.797 329.531 199.579 328.438C211.362 327.344 221.799 336.009 222.893 347.791C223.986 359.573 215.322 370.011 203.54 371.104C191.757 372.198 181.32 363.533 180.226 351.751Z" fill="white" stroke="black"/>
<path d="M120.464 338.16C123.732 326.787 135.6 320.217 146.972 323.485C158.345 326.753 164.915 338.621 161.648 349.994C158.38 361.366 146.511 367.936 135.139 364.669C123.766 361.401 117.196 349.533 120.464 338.16Z" fill="white" stroke="black"/>
<path d="M100.339 299.997C90.9246 292.829 77.4816 294.649 70.3131 304.063C63.1446 313.477 64.965 326.92 74.3791 334.089C83.7933 341.257 97.2362 339.437 104.405 330.023C111.573 320.609 109.753 307.166 100.339 299.997Z" fill="white" stroke="black"/>
<path d="M35.7789 254.231C45.8544 248.026 59.0521 251.164 65.2568 261.24C71.4615 271.315 68.3237 284.513 58.2482 290.717C48.1727 296.922 34.975 293.784 28.7702 283.709C22.5655 273.633 25.7034 260.436 35.7789 254.231Z" fill="white" stroke="black"/>
<path d="M21.6577 195.35C33.2975 193.222 44.4586 200.932 46.5866 212.572C48.7146 224.212 41.0038 235.373 29.3639 237.501C17.7241 239.629 6.56305 231.918 4.43503 220.278C2.30701 208.639 10.0178 197.478 21.6577 195.35Z" fill="white" stroke="black"/>
<path d="M29.7414 135.052C41.3646 137.269 48.9899 148.488 46.7729 160.112C44.5559 171.735 33.3362 179.36 21.713 177.143C10.0898 174.926 2.46455 163.706 4.68152 152.083C6.8985 140.46 18.1182 132.835 29.7414 135.052Z" fill="white" stroke="black"/>
<path d="M59.4187 81.5359C69.4252 87.8512 72.4175 101.083 66.1022 111.089C59.7868 121.096 46.5553 124.088 36.5488 117.773C26.5423 111.457 23.55 98.2259 29.8654 88.2193C36.1807 78.2128 49.4122 75.2205 59.4187 81.5359Z" fill="white" stroke="black"/>
<path d="M106.034 42.7285C113.099 52.2206 111.132 65.6428 101.64 72.7078C92.1476 79.7728 78.7254 77.8053 71.6604 68.3132C64.5954 58.8211 66.5629 45.3989 76.055 38.3339C85.5471 31.2689 98.9693 33.2364 106.034 42.7285Z" fill="white" stroke="black"/>
<path d="M162.482 23.6203C165.664 35.0173 159.004 46.8355 147.607 50.017C136.21 53.1985 124.392 46.5385 121.21 35.1415C118.029 23.7445 124.689 11.9262 136.086 8.74475C147.483 5.56326 159.301 12.2233 162.482 23.6203Z" fill="white" stroke="black"/>
<path d="M223.896 26.1535C222.712 37.9268 212.207 46.511 200.434 45.3268C188.661 44.1426 180.077 33.6384 181.261 21.8651C182.445 10.0917 192.949 1.50752 204.723 2.69173C216.496 3.87594 225.08 14.3801 223.896 26.1535Z" fill="white" stroke="black"/>
<path d="M280.157 50.9942C274.75 61.5196 261.835 65.6693 251.309 60.2628C240.784 54.8563 236.634 41.941 242.041 31.4156C247.447 20.8902 260.363 16.7405 270.888 22.147C281.413 27.5535 285.563 40.4688 280.157 50.9942Z" fill="white" stroke="black"/>
<path d="M292.137 91.7056C300.036 100.516 313.581 101.255 322.392 93.3565C331.202 85.4577 331.941 71.9122 324.043 63.1018C316.144 54.2913 302.599 53.5522 293.788 61.451C284.978 69.3497 284.239 82.8952 292.137 91.7056Z" fill="white" stroke="black"/>
<path d="M347.202 149.374C336.124 153.531 323.773 147.92 319.616 136.841C315.459 125.763 321.07 113.412 332.149 109.255C343.227 105.098 355.578 110.709 359.735 121.788C363.892 132.866 358.281 145.217 347.202 149.374Z" fill="white" stroke="black"/>
<mask id="mask0_1_2" style="mask-type:luminance" maskUnits="userSpaceOnUse" x="328" y="121" width="22" height="17">
<path d="M349.204 121.738H328.983V137.915H349.204V121.738Z" fill="white"/>
</mask>
<g mask="url(#mask0_1_2)">
<path d="M341.853 124.963C341.472 124.581 340.854 124.581 340.474 124.963L334.266 131.196C333.504 131.961 332.269 131.961 331.507 131.196C330.745 130.431 330.745 129.191 331.507 128.426L337.595 122.313C336.833 121.548 335.598 121.548 334.836 122.313L330.127 127.041C328.603 128.571 328.603 131.051 330.127 132.581C331.651 134.111 334.121 134.111 335.645 132.581L341.853 126.348C342.234 125.966 342.234 125.346 341.853 124.963ZM343.922 122.886C342.398 121.356 339.928 121.356 338.404 122.886L332.197 129.118C331.816 129.501 331.816 130.121 332.197 130.503C332.578 130.886 333.195 130.886 333.576 130.503L339.784 124.271C340.546 123.506 341.781 123.506 342.543 124.271C342.924 124.653 343.541 124.653 343.922 124.271C344.303 123.888 344.303 123.268 343.922 122.886ZM345.992 129.118C345.611 128.736 344.993 128.736 344.612 129.118L338.404 135.351C337.642 136.116 336.407 136.116 335.645 135.351C335.264 134.969 334.647 134.969 334.266 135.351C333.884 135.734 333.884 136.354 334.266 136.736C335.789 138.266 338.26 138.266 339.784 136.736L345.992 130.503C346.372 130.121 346.372 129.501 345.992 129.118ZM348.061 127.041C346.537 125.511 344.067 125.511 342.543 127.041L336.335 133.274C335.954 133.656 335.954 134.277 336.335 134.659C336.716 135.041 337.334 135.041 337.715 134.659L343.922 128.426C344.684 127.661 345.92 127.661 346.681 128.426C347.443 129.191 347.443 130.431 346.681 131.196L340.593 137.309C341.355 138.074 342.59 138.074 343.352 137.309L348.061 132.581C349.585 131.051 349.585 128.571 348.061 127.041Z" fill="#1A1918"/>
</g>
<mask id="mask1_1_2" style="mask-type:luminance" maskUnits="userSpaceOnUse" x="339" y="176" width="22" height="22">
<path d="M360.235 176.152H339.646V197.476H360.235V176.152Z" fill="white"/>
</mask>
<g mask="url(#mask1_1_2)">
<path d="M349.94 197.476C355.626 197.476 360.235 192.702 360.235 186.814C360.235 180.926 355.626 176.152 349.94 176.152C344.255 176.152 339.646 180.926 339.646 186.814C339.646 192.702 344.255 197.476 349.94 197.476Z" fill="#2196F3"/>
<path fill-rule="evenodd" clip-rule="evenodd" d="M345.687 189.862H352.495V184.691C352.495 183.912 351.886 183.28 351.134 183.28H344.325V188.451C344.325 189.23 344.935 189.862 345.687 189.862ZM353.403 187.982L356.126 189.862V183.28L353.403 185.161V187.982Z" fill="white"/>
</g>
<mask id="mask2_1_2" style="mask-type:luminance" maskUnits="userSpaceOnUse" x="328" y="235" width="22" height="22">
<path d="M349.204 235.713H328.983V256.67H349.204V235.713Z" fill="white"/>
</mask>
<g mask="url(#mask2_1_2)">
<path d="M349.216 245.095H343.053L348.39 241.902L347.332 240.002L341.994 243.195L345.075 237.666L343.241 236.569L340.159 242.097V235.713H338.041V242.097L334.959 236.569L333.124 237.666L336.206 243.193L330.868 240.002L329.809 241.902L335.147 245.095H328.983V247.289H335.146L329.809 250.481L330.868 252.381L336.206 249.189L333.124 254.718L334.958 255.815L338.041 250.286V256.67H340.159V250.15L343.297 255.78L345.017 254.752L341.878 249.12L347.331 252.381L348.39 250.481L343.053 247.288H349.216V245.095ZM339.1 249.174C338.722 249.174 338.347 249.097 337.998 248.947C337.649 248.798 337.331 248.578 337.064 248.301C336.796 248.024 336.584 247.695 336.439 247.333C336.295 246.971 336.22 246.583 336.22 246.191C336.22 245.799 336.294 245.411 336.439 245.049C336.584 244.687 336.796 244.358 337.063 244.081C337.331 243.804 337.648 243.585 337.997 243.435C338.347 243.285 338.721 243.207 339.099 243.207C339.863 243.207 340.595 243.521 341.135 244.081C341.676 244.64 341.979 245.399 341.979 246.191C341.979 246.982 341.676 247.741 341.136 248.3C340.596 248.86 339.864 249.174 339.1 249.174Z" fill="#5753F3"/>
</g>
<mask id="mask3_1_2" style="mask-type:luminance" maskUnits="userSpaceOnUse" x="36" y="262" width="22" height="22">
<path d="M57.6496 262.185H36.6929V283.142H57.6496V262.185Z" fill="white"/>
</mask>
<g mask="url(#mask3_1_2)">
<path d="M54.6558 262.185H39.6867C38.0332 262.185 36.6929 263.525 36.6929 265.179V280.148C36.6929 281.801 38.0332 283.142 39.6867 283.142H54.6558C56.3092 283.142 57.6496 281.801 57.6496 280.148V265.179C57.6496 263.525 56.3092 262.185 54.6558 262.185Z" fill="#3A48FF"/>
<path d="M50.2024 270.852C50.2024 270.852 49.192 274.025 49.1096 274.287C49.0797 274.018 48.3387 268.322 48.3387 268.322C46.6173 268.322 45.6967 269.55 45.2102 270.844C45.2102 270.844 43.9827 274.025 43.878 274.295C43.8705 274.048 43.6908 270.882 43.6908 270.882C43.5861 269.295 42.1341 268.33 40.959 268.33L42.381 276.959C44.1848 276.952 45.1578 275.732 45.6668 274.437C45.6668 274.437 46.752 271.63 46.7969 271.503C46.8044 271.623 47.5753 276.959 47.5753 276.959C49.3866 276.959 50.3596 275.814 50.8835 274.564L53.4207 268.33C51.6319 268.33 50.6889 269.55 50.2024 270.852Z" fill="white"/>
</g>
<mask id="mask4_1_2" style="mask-type:luminance" maskUnits="userSpaceOnUse" x="15" y="206" width="21" height="21">
<path d="M35.59 206.668H15.7363V226.889H35.59V206.668Z" fill="white"/>
</mask>
<g mask="url(#mask4_1_2)">
<path d="M29.3389 219.773C28.6969 220.34 27.8951 221.045 26.4413 221.045H25.572C24.52 221.045 23.5631 220.665 22.8782 219.975C22.2092 219.301 21.8409 218.379 21.8409 217.378V216.194C21.8409 215.193 22.2092 214.271 22.8782 213.597C23.5631 212.907 24.52 212.528 25.572 212.528H26.4413C27.8969 212.528 28.6969 213.232 29.3389 213.799C30.0056 214.384 30.5806 214.894 32.1143 214.894C32.3482 214.894 32.5817 214.876 32.8127 214.839L32.8074 214.825C32.7155 214.599 32.6078 214.378 32.4849 214.166L31.4599 212.4C30.9977 211.603 30.3329 210.942 29.5324 210.482C28.7319 210.022 27.8238 209.78 26.8995 209.78H24.8489C23.9245 209.78 23.0165 210.022 22.2159 210.482C21.4154 210.942 20.7506 211.603 20.2884 212.4L19.2634 214.166C18.8014 214.963 18.5581 215.866 18.5581 216.786C18.5581 217.706 18.8014 218.609 19.2634 219.406L20.2884 221.172C20.7506 221.969 21.4154 222.63 22.2159 223.09C23.0165 223.55 23.9245 223.792 24.8489 223.792H26.8995C27.8238 223.792 28.7319 223.55 29.5324 223.09C30.3329 222.63 30.9977 221.969 31.4599 221.172L32.4849 219.409C32.6078 219.197 32.7155 218.976 32.8074 218.749L32.8127 218.737C32.5819 218.698 32.3483 218.679 32.1143 218.678C30.5806 218.678 30.0056 219.186 29.3389 219.773Z" fill="#006BFF"/>
<path d="M26.4415 213.6H25.5722C23.971 213.6 22.9189 214.738 22.9189 216.194V217.378C22.9189 218.834 23.971 219.972 25.5722 219.972H26.4415C28.7746 219.972 28.5914 217.605 32.1145 217.605C32.4483 217.605 32.7814 217.635 33.1095 217.696C33.2164 217.094 33.2164 216.478 33.1095 215.876C32.7814 215.936 32.4483 215.967 32.1145 215.967C28.5902 215.967 28.7746 213.6 26.4415 213.6Z" fill="#006BFF"/>
<path d="M35.1337 218.561C34.5337 218.124 33.8418 217.828 33.1101 217.696C33.1101 217.702 33.1101 217.707 33.1101 217.713C33.0472 218.062 32.9487 218.404 32.8164 218.733C33.4209 218.826 33.9943 219.061 34.4893 219.419C34.4893 219.423 34.4864 219.429 34.4846 219.434C33.8475 221.487 32.4916 223.244 30.663 224.387C28.8345 225.529 26.6548 225.981 24.5198 225.661C22.3848 225.34 20.4362 224.268 19.028 222.64C17.6197 221.011 16.8452 218.934 16.8452 216.786C16.8452 214.638 17.6197 212.561 19.028 210.932C20.4362 209.304 22.3848 208.232 24.5198 207.911C26.6548 207.591 28.8345 208.043 30.663 209.185C32.4916 210.328 33.8475 212.085 34.4846 214.138C34.4846 214.143 34.4876 214.149 34.4893 214.153C33.9944 214.511 33.4209 214.746 32.8164 214.838C32.9486 215.168 33.047 215.51 33.1101 215.859C33.1098 215.865 33.1098 215.87 33.1101 215.876C33.8418 215.744 34.5337 215.448 35.1337 215.011C35.7105 214.586 35.5989 214.106 35.5114 213.822C34.7982 211.521 33.2789 209.55 31.2295 208.269C29.1802 206.987 26.7367 206.48 24.3432 206.838C21.9497 207.197 19.765 208.398 18.1861 210.224C16.6071 212.049 15.7388 214.378 15.7388 216.786C15.7388 219.194 16.6071 221.523 18.1861 223.348C19.765 225.173 21.9497 226.375 24.3432 226.734C26.7367 227.092 29.1802 226.585 31.2295 225.303C33.2789 224.022 34.7982 222.051 35.5114 219.75C35.5989 219.466 35.7105 218.986 35.1337 218.561Z" fill="#006BFF"/>
<path d="M32.8126 214.838C32.5818 214.876 32.3483 214.896 32.1142 214.897C30.5806 214.897 30.0055 214.389 29.3394 213.802C28.6968 213.235 27.8968 212.529 26.4412 212.529H25.5719C24.5193 212.529 23.563 212.91 22.8781 213.599C22.2091 214.273 21.8408 215.195 21.8408 216.197V217.38C21.8408 218.381 22.2091 219.303 22.8781 219.977C23.563 220.667 24.5193 221.047 25.5719 221.047H26.4412C27.8968 221.047 28.6968 220.342 29.3394 219.775C30.0055 219.191 30.5806 218.68 32.1142 218.68C32.3481 218.68 32.5817 218.698 32.8126 218.735C32.9452 218.406 33.0436 218.065 33.1063 217.715C33.1067 217.71 33.1067 217.704 33.1063 217.698C32.7782 217.637 32.4451 217.607 32.1113 217.607C28.587 217.607 28.7714 219.975 26.4383 219.975H25.569C23.9678 219.975 22.9157 218.836 22.9157 217.38V216.194C22.9157 214.738 23.9678 213.6 25.569 213.6H26.4383C28.7714 213.6 28.5881 215.966 32.1113 215.966C32.4451 215.967 32.7782 215.937 33.1063 215.876C33.1063 215.87 33.1063 215.865 33.1063 215.859C33.0432 215.51 32.9448 215.168 32.8126 214.838Z" fill="#0AE8F0"/>
<path d="M32.8126 214.838C32.5818 214.876 32.3483 214.896 32.1142 214.897C30.5806 214.897 30.0055 214.389 29.3394 213.802C28.6968 213.235 27.8968 212.529 26.4412 212.529H25.5719C24.5193 212.529 23.563 212.91 22.8781 213.599C22.2091 214.273 21.8408 215.195 21.8408 216.197V217.38C21.8408 218.381 22.2091 219.303 22.8781 219.977C23.563 220.667 24.5193 221.047 25.5719 221.047H26.4412C27.8968 221.047 28.6968 220.342 29.3394 219.775C30.0055 219.191 30.5806 218.68 32.1142 218.68C32.3481 218.68 32.5817 218.698 32.8126 218.735C32.9452 218.406 33.0436 218.065 33.1063 217.715C33.1067 217.71 33.1067 217.704 33.1063 217.698C32.7782 217.637 32.4451 217.607 32.1113 217.607C28.587 217.607 28.7714 219.975 26.4383 219.975H25.569C23.9678 219.975 22.9157 218.836 22.9157 217.38V216.194C22.9157 214.738 23.9678 213.6 25.569 213.6H26.4383C28.7714 213.6 28.5881 215.966 32.1113 215.966C32.4451 215.967 32.7782 215.937 33.1063 215.876C33.1063 215.87 33.1063 215.865 33.1063 215.859C33.0432 215.51 32.9448 215.168 32.8126 214.838Z" fill="#0AE8F0"/>
</g>
<mask id="mask5_1_2" style="mask-type:luminance" maskUnits="userSpaceOnUse" x="251" y="30" width="21" height="22">
<path d="M271.997 30.5582H251.04V51.5149H271.997V30.5582Z" fill="white"/>
</mask>
<g mask="url(#mask5_1_2)">
<path d="M257.406 40.2906C257.345 40.2112 257.265 40.1489 257.173 40.1095C257.082 40.0702 256.981 40.0552 256.882 40.066C256.783 40.0768 256.688 40.113 256.607 40.1711C256.525 40.2293 256.461 40.3074 256.418 40.3979L251.415 50.4021C251.369 50.4932 251.348 50.5945 251.352 50.6964C251.357 50.7982 251.387 50.8972 251.441 50.9839C251.494 51.0706 251.569 51.1422 251.658 51.1918C251.747 51.2414 251.848 51.2675 251.95 51.2675H258.917C259.028 51.2701 259.138 51.2403 259.233 51.1816C259.328 51.1229 259.404 51.0379 259.452 50.9369C260.955 47.8313 260.044 43.1091 257.406 40.2906Z" fill="url(#paint0_linear_1_2)"/>
<path d="M261.076 31.1913C259.829 33.1096 259.102 35.3192 258.967 37.6031C258.832 39.8871 259.293 42.1669 260.305 44.2188L263.664 50.9369C263.714 51.0362 263.79 51.1197 263.885 51.1781C263.979 51.2365 264.088 51.2675 264.199 51.2675H271.165C271.267 51.2675 271.367 51.2414 271.457 51.1917C271.546 51.1421 271.62 51.0705 271.674 50.9838C271.728 50.8971 271.758 50.7981 271.763 50.6963C271.767 50.5945 271.746 50.4932 271.7 50.402C271.7 50.402 262.328 31.6564 262.093 31.1875C262.046 31.0921 261.974 31.0117 261.884 30.9556C261.794 30.8995 261.689 30.8699 261.583 30.8703C261.477 30.8707 261.373 30.901 261.283 30.9578C261.194 31.0146 261.122 31.0955 261.076 31.1913Z" fill="#2684FF"/>
</g>
<mask id="mask6_1_2" style="mask-type:luminance" maskUnits="userSpaceOnUse" x="77" y="46" width="23" height="19">
<path d="M99.1955 46H77.8711V64.7507H99.1955V46Z" fill="white"/>
</mask>
<g mask="url(#mask6_1_2)">
<path fill-rule="evenodd" clip-rule="evenodd" d="M94.5344 55.8914C91.9768 55.8914 89.9032 57.8596 89.9032 60.2878C89.9032 62.7157 91.9768 64.684 94.5344 64.684C97.0922 64.684 99.1656 62.7157 99.1656 60.2878C99.1656 57.8596 97.0922 55.8914 94.5344 55.8914ZM82.5023 55.8918C79.9446 55.8918 77.8711 57.8596 77.8711 60.2878C77.8711 62.7157 79.9446 64.684 82.5023 64.684C85.0601 64.684 87.1337 62.7157 87.1337 60.2878C87.1337 57.8596 85.0601 55.8918 82.5023 55.8918ZM93.1495 50.3961C93.1495 52.8242 91.0761 54.7926 88.5184 54.7926C85.9606 54.7926 83.8872 52.8242 83.8872 50.3961C83.8872 47.9684 85.9606 46 88.5184 46C91.0761 46 93.1495 47.9684 93.1495 50.3961Z" fill="#F06A6A"/>
</g>
<mask id="mask7_1_2" style="mask-type:luminance" maskUnits="userSpaceOnUse" x="77" y="307" width="21" height="21">
<path d="M97.7247 307.407H77.1357V327.261H97.7247V307.407Z" fill="white"/>
</mask>
<g mask="url(#mask7_1_2)">
<path d="M97.3313 315.345L97.3037 315.271L94.5236 308C94.4673 307.857 94.3671 307.736 94.2377 307.654C94.141 307.592 94.0313 307.554 93.9172 307.542C93.8031 307.53 93.6878 307.545 93.5805 307.586C93.4734 307.627 93.3771 307.693 93.2998 307.778C93.2224 307.863 93.1659 307.964 93.1348 308.075L91.2582 313.835H83.6586L81.782 308.075C81.7507 307.965 81.694 307.863 81.6166 307.778C81.5391 307.693 81.443 307.628 81.3359 307.587C81.2287 307.546 81.1136 307.531 80.9995 307.543C80.8855 307.554 80.7758 307.593 80.6791 307.654C80.5496 307.736 80.4495 307.857 80.3932 308L77.6143 315.272L77.5855 315.345C77.1854 316.393 77.1361 317.543 77.445 318.622C77.754 319.701 78.4044 320.65 79.2982 321.326L79.3087 321.334L79.3323 321.352L83.5615 324.53L85.6598 326.12L86.9345 327.086C87.084 327.199 87.2664 327.261 87.4538 327.261C87.6412 327.261 87.8235 327.199 87.9731 327.086L89.2478 326.12L91.346 324.53L95.6055 321.334L95.6173 321.324C96.511 320.649 97.1615 319.7 97.4707 318.622C97.7798 317.543 97.7309 316.393 97.3313 315.345Z" fill="#E24329"/>
<path d="M97.3315 315.345L97.304 315.271C95.9494 315.55 94.6731 316.125 93.5665 316.957L87.4619 321.585L91.3489 324.53L95.6084 321.334L95.6202 321.325C96.5135 320.649 97.1634 319.7 97.4721 318.621C97.7807 317.543 97.7314 316.393 97.3315 315.345Z" fill="#FC6D26"/>
<path d="M83.5615 324.53L85.6598 326.12L86.9345 327.086C87.084 327.199 87.2663 327.261 87.4538 327.261C87.6412 327.261 87.8235 327.199 87.9731 327.086L89.2478 326.12L91.346 324.53L87.459 321.585L83.5615 324.53Z" fill="#FCA326"/>
<path d="M81.3505 316.957C80.2443 316.126 78.9684 315.551 77.6143 315.272L77.5855 315.345C77.1854 316.393 77.1361 317.543 77.445 318.622C77.754 319.701 78.4044 320.65 79.2982 321.326L79.3087 321.334L79.3323 321.352L83.5615 324.53L87.4512 321.585L81.3505 316.957Z" fill="#FC6D26"/>
</g>
<mask id="mask8_1_2" style="mask-type:luminance" maskUnits="userSpaceOnUse" x="131" y="19" width="21" height="20">
<path d="M151.771 19.896H131.917V38.2791H151.771V19.896Z" fill="white"/>
</mask>
<g mask="url(#mask8_1_2)">
<path d="M137.688 19.896L131.917 23.6186L135.934 26.8356L141.705 23.2509L137.688 19.896ZM131.917 29.9607L137.688 33.7293L141.705 30.3743L135.934 26.8356L131.917 29.9607ZM141.705 30.3743L145.768 33.7293L151.494 30.0067L147.523 26.8356L141.705 30.3743ZM151.494 23.6186L145.768 19.896L141.705 23.2509L147.523 26.8356L151.494 23.6186ZM141.752 31.1097L137.688 34.4646L135.98 33.3156V34.6025L141.752 38.0493L147.523 34.6025V33.3156L145.768 34.4646L141.752 31.1097Z" fill="#0056FE"/>
</g>
<mask id="mask9_1_2" style="mask-type:luminance" maskUnits="userSpaceOnUse" x="192" y="16" width="21" height="17">
<path d="M212.803 16.587H192.582V32.0288H212.803V16.587Z" fill="white"/>
</mask>
<g mask="url(#mask9_1_2)">
<path d="M209.699 17.8803C208.391 17.2761 206.993 16.837 205.53 16.587C205.351 16.9075 205.141 17.3386 204.996 17.6815C203.442 17.4508 201.902 17.4508 200.376 17.6815C200.231 17.3386 200.017 16.9075 199.836 16.587C198.372 16.837 196.971 17.2777 195.663 17.8835C193.025 21.8192 192.31 25.6573 192.667 29.4408C194.417 30.7308 196.113 31.5144 197.78 32.0272C198.192 31.468 198.559 30.8734 198.876 30.2468C198.273 30.0209 197.696 29.7421 197.151 29.4183C197.296 29.3126 197.437 29.202 197.574 29.0882C200.899 30.6234 204.512 30.6234 207.797 29.0882C207.935 29.202 208.077 29.3126 208.22 29.4183C207.673 29.7436 207.094 30.0225 206.492 30.2484C206.808 30.8734 207.174 31.4696 207.587 32.0288C209.256 31.516 210.953 30.7324 212.703 29.4408C213.123 25.0547 211.986 21.2519 209.699 17.8803ZM199.329 27.114C198.33 27.114 197.512 26.1941 197.512 25.074C197.512 23.9538 198.313 23.0324 199.329 23.0324C200.344 23.0324 201.163 23.9522 201.145 25.074C201.147 26.1941 200.344 27.114 199.329 27.114ZM206.042 27.114C205.044 27.114 204.225 26.1941 204.225 25.074C204.225 23.9538 205.026 23.0324 206.042 23.0324C207.058 23.0324 207.876 23.9522 207.859 25.074C207.859 26.1941 207.058 27.114 206.042 27.114Z" fill="#5865F2"/>
</g>
<path d="M251.777 343.438V343.107C251.777 338.969 251.772 334.83 251.777 330.688C251.782 328.548 253.188 326.785 255.245 326.467C256.15 326.328 257.091 326.444 258.078 326.444V326.792C258.078 330.861 258.078 334.929 258.078 338.998C258.078 341.599 256.267 343.424 253.696 343.434C253.08 343.439 252.459 343.438 251.777 343.438Z" fill="black"/>
<path d="M260.179 336.317V322.849C261.347 322.911 262.512 322.701 263.641 323.114C265.305 323.711 266.436 325.354 266.467 327.22C266.49 328.721 266.48 330.223 266.475 331.725C266.464 334.286 264.852 336.141 262.454 336.318C261.71 336.364 260.962 336.317 260.179 336.317Z" fill="black"/>
<mask id="mask10_1_2" style="mask-type:luminance" maskUnits="userSpaceOnUse" x="299" y="287" width="16" height="21">
<path d="M314.644 287.186H299.938V307.407H314.644V287.186Z" fill="white"/>
</mask>
<g mask="url(#mask10_1_2)">
<path d="M309.743 305.385V305.878C309.743 306.576 309.194 307.142 308.517 307.142C308.307 307.142 308.1 307.086 307.916 306.98L300.563 302.714C300.177 302.49 299.938 302.069 299.938 301.613V292.98C299.938 292.524 300.177 292.103 300.563 291.879L307.916 287.613C308.506 287.271 309.254 287.487 309.585 288.095C309.689 288.284 309.743 288.498 309.743 288.715V289.208L310.616 288.938C311.264 288.737 311.948 289.117 312.142 289.785C312.176 289.903 312.194 290.025 312.194 290.148V290.661L313.267 290.523C313.939 290.436 314.552 290.928 314.635 291.62C314.642 291.672 314.645 291.725 314.645 291.777V302.816C314.645 303.514 314.096 304.08 313.419 304.08C313.369 304.08 313.318 304.076 313.267 304.07L312.194 303.932V304.445C312.194 305.143 311.645 305.708 310.968 305.708C310.849 305.708 310.73 305.691 310.616 305.655L309.743 305.385ZM309.743 304.066L310.968 304.445V290.148L309.743 290.527V304.066ZM312.194 291.935V302.658L313.419 302.816V291.777L312.194 291.935ZM301.164 292.98V301.613L308.517 305.878V288.715L301.164 292.98ZM302.39 293.821L303.615 293.189V301.404L302.39 300.772V293.821Z" fill="black"/>
</g>
<mask id="mask11_1_2" style="mask-type:luminance" maskUnits="userSpaceOnUse" x="131" y="335" width="21" height="19">
<path d="M151.403 335.349H131.182V353.732H151.403V335.349Z" fill="white"/>
</mask>
<g mask="url(#mask11_1_2)">
<path d="M138.077 337.666C138.272 337.155 138.54 336.686 138.938 336.305C140.53 334.758 143.161 335.147 144.241 337.091C145.053 338.564 145.914 340.006 146.75 341.464C148.147 343.885 149.56 346.306 150.941 348.736C152.102 350.769 150.843 353.336 148.537 353.684C147.124 353.894 145.8 353.247 145.069 351.983C143.843 349.853 142.609 347.724 141.382 345.602C141.358 345.553 141.326 345.513 141.293 345.472C141.163 345.367 141.106 345.213 141.025 345.075C140.481 344.12 139.921 343.172 139.376 342.225C139.027 341.609 138.662 341.002 138.313 340.387C137.996 339.836 137.85 339.237 137.866 338.605C137.89 338.281 137.931 337.957 138.077 337.666Z" fill="#3C8BD9"/>
<path d="M138.077 337.666C138.004 337.957 137.939 338.249 137.923 338.556C137.898 339.237 138.069 339.868 138.41 340.459C139.303 341.99 140.197 343.529 141.082 345.067C141.163 345.205 141.228 345.343 141.309 345.472C140.822 346.314 140.335 347.149 139.839 347.991C139.157 349.165 138.475 350.347 137.785 351.522C137.752 351.522 137.744 351.505 137.736 351.481C137.728 351.416 137.752 351.36 137.768 351.295C138.101 350.08 137.825 349.003 136.989 348.08C136.477 347.521 135.827 347.205 135.08 347.1C134.106 346.962 133.245 347.213 132.474 347.821C132.335 347.926 132.246 348.08 132.084 348.161C132.051 348.161 132.035 348.145 132.027 348.12C132.417 347.448 132.798 346.776 133.188 346.104C134.796 343.318 136.404 340.532 138.02 337.755C138.036 337.722 138.061 337.698 138.077 337.666Z" fill="#FABC04"/>
<path d="M132.059 348.145C132.214 348.007 132.36 347.861 132.522 347.732C134.496 346.177 137.46 347.302 137.89 349.764C137.996 350.356 137.939 350.922 137.76 351.489C137.752 351.538 137.744 351.578 137.728 351.627C137.655 351.757 137.59 351.894 137.508 352.024C136.786 353.214 135.722 353.805 134.325 353.716C132.725 353.603 131.466 352.404 131.247 350.817C131.142 350.048 131.296 349.327 131.694 348.663C131.775 348.517 131.872 348.388 131.962 348.242C132.002 348.209 131.986 348.145 132.059 348.145Z" fill="#34A852"/>
<path d="M132.059 348.145C132.027 348.177 132.027 348.234 131.97 348.242C131.962 348.185 131.994 348.153 132.027 348.112L132.059 348.145Z" fill="#FABC04"/>
<path d="M137.728 351.627C137.695 351.57 137.728 351.53 137.76 351.489C137.768 351.497 137.785 351.514 137.793 351.522L137.728 351.627Z" fill="#E1C025"/>
</g>
<mask id="mask12_1_2" style="mask-type:luminance" maskUnits="userSpaceOnUse" x="191" y="339" width="21" height="22">
<path d="M211.7 339.761H191.479V360.718H211.7V339.761Z" fill="white"/>
</mask>
<g mask="url(#mask12_1_2)">
<path d="M192.816 350.24C192.816 353.843 194.838 356.946 197.763 358.421L193.578 346.54C193.076 347.704 192.816 348.965 192.816 350.24ZM201.589 359.332C202.608 359.332 203.588 359.146 204.506 358.816L204.444 358.695L201.745 351.038L199.116 358.961C199.894 359.203 200.726 359.332 201.589 359.332ZM202.795 345.976L205.968 355.753L206.847 352.722C207.22 351.465 207.508 350.562 207.508 349.78C207.508 348.652 207.119 347.878 206.792 347.282C206.341 346.524 205.929 345.887 205.929 345.146C205.929 344.307 206.536 343.534 207.407 343.534H207.516C205.899 341.996 203.784 341.144 201.589 341.148C200.136 341.147 198.706 341.521 197.427 342.236C196.148 342.951 195.061 343.984 194.263 345.242L194.823 345.258C195.741 345.258 197.156 345.138 197.156 345.138C197.638 345.113 197.693 345.831 197.218 345.887C197.218 345.887 196.744 345.952 196.207 345.976L199.412 355.825L201.333 349.861L199.964 345.976C199.657 345.958 199.351 345.931 199.046 345.895C198.572 345.863 198.626 345.113 199.1 345.138C199.1 345.138 200.547 345.258 201.41 345.258C202.328 345.258 203.744 345.138 203.744 345.138C204.218 345.113 204.28 345.831 203.806 345.887C203.806 345.887 203.331 345.944 202.795 345.976ZM205.999 358.098C207.326 357.299 208.428 356.152 209.193 354.773C209.959 353.394 210.362 351.831 210.362 350.24C210.362 348.66 209.973 347.177 209.289 345.879C209.428 347.307 209.219 348.748 208.682 350.07L205.999 358.098ZM201.589 360.718C198.908 360.718 196.336 359.614 194.44 357.649C192.544 355.684 191.479 353.019 191.479 350.24C191.479 347.461 192.544 344.795 194.44 342.83C196.336 340.865 198.908 339.761 201.589 339.761C204.271 339.761 206.842 340.865 208.739 342.83C210.635 344.795 211.7 347.461 211.7 350.24C211.7 353.019 210.635 355.684 208.739 357.649C206.842 359.614 204.271 360.718 201.589 360.718Z" fill="#126FC2"/>
</g>
<path d="M290.567 187.284C290.567 244.878 243.877 291.566 186.283 291.566C128.689 291.566 82 244.878 82 187.284C82 129.689 128.689 83 186.283 83C243.877 83 290.567 129.689 290.567 187.284Z" fill="white" stroke="black"/>
<path d="M265.878 184.976C265.878 199.929 278 212.051 292.953 212.051C307.906 212.051 320.028 199.929 320.028 184.976C320.028 170.023 307.906 157.901 292.953 157.901C278 157.901 265.878 170.023 265.878 184.976Z" fill="white" stroke="black"/>
<path d="M244.003 241.937C233.43 252.511 233.43 269.653 244.003 280.227C254.577 290.8 271.719 290.8 282.293 280.227C292.866 269.653 292.866 252.511 282.293 241.937C271.719 231.364 254.577 231.364 244.003 241.937Z" fill="white" stroke="black"/>
<path d="M187.644 266.991C172.692 266.933 160.523 279.008 160.466 293.961C160.408 308.913 172.483 321.082 187.436 321.139C202.388 321.197 214.557 309.122 214.614 294.169C214.672 279.217 202.597 267.048 187.644 266.991Z" fill="white" stroke="black"/>
<path d="M131.051 244.557C120.516 233.945 103.374 233.883 92.762 244.418C82.1504 254.953 82.0882 272.095 92.623 282.707C103.158 293.319 120.3 293.381 130.912 282.846C141.524 272.311 141.586 255.169 131.051 244.557Z" fill="white" stroke="black"/>
<path d="M106.26 188.34C106.375 173.388 94.3475 161.173 79.3951 161.057C64.4426 160.942 52.2277 172.97 52.1123 187.922C51.9969 202.874 64.0246 215.089 78.9771 215.205C93.9295 215.32 106.144 203.292 106.26 188.34Z" fill="white" stroke="black"/>
<path d="M128.518 131.378C139.168 120.882 139.292 103.74 128.796 93.09C118.3 82.4401 101.158 82.3156 90.508 92.8118C79.8581 103.308 79.7336 120.45 90.2298 131.1C100.726 141.75 117.868 141.874 128.518 131.378Z" fill="white" stroke="black"/>
<path d="M184.96 107.215C199.912 107.388 212.174 95.4077 212.347 80.4558C212.52 65.5039 200.539 53.2427 185.588 53.0695C170.636 52.8964 158.374 64.8769 158.201 79.8288C158.028 94.7807 170.009 107.042 184.96 107.215Z" fill="white" stroke="black"/>
<path d="M241.557 129.665C252.014 140.353 269.156 140.54 279.844 130.082C290.532 119.625 290.719 102.483 280.261 91.7952C269.804 81.1073 252.662 80.9204 241.974 91.3778C231.286 101.835 231.099 118.977 241.557 129.665Z" fill="white" stroke="black"/>
<mask id="mask13_1_2" style="mask-type:luminance" maskUnits="userSpaceOnUse" x="65" y="176" width="29" height="25">
<path d="M93.5479 176.52H65.0029V200.05H93.5479V176.52Z" fill="white"/>
</mask>
<g mask="url(#mask13_1_2)">
<path d="M93.5479 179.305C92.4977 179.778 91.3689 180.097 90.1845 180.241C91.3935 179.505 92.3222 178.341 92.7594 176.954C91.6277 177.635 90.3744 178.129 89.0404 178.396C87.9722 177.241 86.4502 176.52 84.7657 176.52C81.5316 176.52 78.9093 179.179 78.9093 182.46C78.9093 182.925 78.9611 183.379 79.061 183.814C74.1938 183.566 69.8787 181.201 66.9902 177.607C66.4861 178.484 66.1972 179.505 66.1972 180.593C66.1972 182.654 67.2311 184.472 68.8025 185.538C67.8425 185.507 66.9395 185.24 66.15 184.795C66.1493 184.819 66.1493 184.844 66.1493 184.869C66.1493 187.747 68.168 190.148 70.8471 190.694C70.3557 190.83 69.8383 190.903 69.3042 190.903C68.9269 190.903 68.5601 190.865 68.2024 190.796C68.9477 193.156 71.1104 194.873 73.6732 194.921C71.6689 196.515 69.1438 197.464 66.3999 197.464C65.9272 197.464 65.4611 197.436 65.0029 197.381C67.5947 199.067 70.673 200.05 73.9802 200.05C84.7521 200.05 90.6428 190.999 90.6428 183.149C90.6428 182.891 90.6371 182.635 90.6258 182.38C91.7699 181.543 92.7628 180.496 93.5479 179.305Z" fill="#2AA9E0"/>
</g>
<mask id="mask14_1_2" style="mask-type:luminance" maskUnits="userSpaceOnUse" x="99" y="251" width="25" height="25">
<path d="M123.461 251.89H99.9307V275.42H123.461V251.89Z" fill="white"/>
</mask>
<g mask="url(#mask14_1_2)">
<path fill-rule="evenodd" clip-rule="evenodd" d="M120.248 251.985H102.855C101.358 251.985 100.145 253.197 100.143 254.694V272.061C100.14 272.783 100.424 273.475 100.933 273.986C101.442 274.497 102.133 274.784 102.855 274.784H120.248C120.969 274.783 121.659 274.496 122.167 273.985C122.675 273.474 122.959 272.782 122.956 272.061V254.694C122.954 253.199 121.743 251.987 120.248 251.985ZM109.981 268.407C109.981 268.648 109.884 268.878 109.712 269.048C109.541 269.217 109.309 269.311 109.068 269.309H105.267C104.77 269.307 104.368 268.904 104.368 268.407V257.095C104.368 256.598 104.77 256.194 105.267 256.192H109.068C109.566 256.194 109.969 256.597 109.971 257.095L109.981 268.407ZM118.753 263.213C118.753 263.454 118.657 263.686 118.485 263.855C118.313 264.025 118.081 264.119 117.839 264.116H114.038C113.541 264.114 113.138 263.711 113.136 263.213V257.095C113.138 256.597 113.541 256.194 114.038 256.192H117.839C118.337 256.194 118.739 256.598 118.739 257.095L118.753 263.213Z" fill="url(#paint1_linear_1_2)"/>
</g>
<mask id="mask15_1_2" style="mask-type:luminance" maskUnits="userSpaceOnUse" x="176" y="282" width="24" height="24">
<path d="M199.261 282.039H176.036V305.569H199.261V282.039Z" fill="white"/>
</mask>
<g mask="url(#mask15_1_2)">
<path d="M181.01 296.861C181.01 298.213 179.931 299.307 178.597 299.307C177.262 299.307 176.183 298.213 176.183 296.861C176.183 295.508 177.262 294.415 178.597 294.415H181.01V296.861ZM182.217 296.861C182.217 295.508 183.296 294.415 184.631 294.415C185.966 294.415 187.045 295.508 187.045 296.861V302.975C187.045 304.328 185.966 305.421 184.631 305.421C183.296 305.421 182.217 304.328 182.217 302.975V296.861Z" fill="#E01E5A"/>
<path d="M184.631 287.041C183.296 287.041 182.217 285.948 182.217 284.595C182.217 283.243 183.296 282.15 184.631 282.15C185.966 282.15 187.045 283.243 187.045 284.595V287.041H184.631ZM184.631 288.282C185.966 288.282 187.045 289.376 187.045 290.728C187.045 292.081 185.966 293.174 184.631 293.174H178.578C177.243 293.174 176.164 292.081 176.164 290.728C176.164 289.376 177.243 288.282 178.578 288.282H184.631Z" fill="#36C5F0"/>
<path d="M194.305 290.728C194.305 289.376 195.384 288.282 196.719 288.282C198.054 288.282 199.133 289.376 199.133 290.728C199.133 292.081 198.054 293.174 196.719 293.174H194.305V290.728ZM193.098 290.728C193.098 292.081 192.019 293.174 190.684 293.174C189.349 293.174 188.271 292.081 188.271 290.728V284.595C188.271 283.243 189.349 282.15 190.684 282.15C192.019 282.15 193.098 283.243 193.098 284.595V290.728Z" fill="#2EB67D"/>
<path d="M190.684 300.529C192.019 300.529 193.098 301.622 193.098 302.975C193.098 304.328 192.019 305.421 190.684 305.421C189.349 305.421 188.271 304.328 188.271 302.975V300.529H190.684ZM190.684 299.307C189.349 299.307 188.271 298.213 188.271 296.861C188.271 295.508 189.349 294.415 190.684 294.415H196.737C198.072 294.415 199.151 295.508 199.151 296.861C199.151 298.213 198.072 299.307 196.737 299.307H190.684Z" fill="#ECB22E"/>
</g>
<mask id="mask16_1_2" style="mask-type:luminance" maskUnits="userSpaceOnUse" x="13" y="144" width="25" height="24">
<path d="M37.1186 144.166H13.8979V167.696H37.1186V144.166Z" fill="white"/>
</mask>
<g mask="url(#mask16_1_2)">
<path fill-rule="evenodd" clip-rule="evenodd" d="M25.5083 144.166C19.0936 144.166 13.8979 149.43 13.8979 155.931C13.8979 161.137 17.2214 165.534 21.8365 167.093C22.4171 167.196 22.6347 166.843 22.6347 166.534C22.6347 166.255 22.6202 165.328 22.6202 164.343C19.7031 164.887 18.9485 163.622 18.7162 162.96C18.5856 162.622 18.0196 161.578 17.5262 161.299C17.1198 161.078 16.5393 160.534 17.5117 160.519C18.426 160.504 19.0791 161.372 19.2968 161.725C20.3417 163.505 22.0107 163.004 22.6783 162.696C22.7799 161.931 23.0846 161.416 23.4184 161.122C20.8351 160.828 18.1357 159.813 18.1357 155.313C18.1357 154.034 18.5856 152.975 19.3258 152.151C19.2097 151.857 18.8033 150.651 19.4419 149.033C19.4419 149.033 20.4143 148.725 22.6347 150.239C23.5636 149.975 24.5505 149.842 25.5373 149.842C26.5242 149.842 27.5111 149.975 28.4399 150.239C30.6604 148.71 31.6328 149.033 31.6328 149.033C32.2713 150.651 31.865 151.857 31.7489 152.151C32.489 152.975 32.9389 154.019 32.9389 155.313C32.9389 159.828 30.225 160.828 27.6417 161.122C28.0626 161.49 28.4254 162.196 28.4254 163.299C28.4254 164.872 28.4109 166.137 28.4109 166.534C28.4109 166.843 28.6286 167.211 29.2091 167.093C33.7952 165.534 37.1187 161.122 37.1187 155.931C37.1187 149.43 31.923 144.166 25.5083 144.166Z" fill="#1B1F23"/>
</g>
<mask id="mask17_1_2" style="mask-type:luminance" maskUnits="userSpaceOnUse" x="97" y="100" width="25" height="25">
<path d="M121.255 100.782H97.7246V124.312H121.255V100.782Z" fill="white"/>
</mask>
<g mask="url(#mask17_1_2)">
<path d="M117.72 120.766H114.297V115.323C114.297 114.025 114.274 112.355 112.517 112.355C110.734 112.355 110.462 113.769 110.462 115.229V120.765H107.039V109.574H110.325V111.103H110.371C110.7 110.532 111.175 110.063 111.746 109.744C112.317 109.426 112.962 109.271 113.613 109.295C117.082 109.295 117.721 111.612 117.721 114.626L117.72 120.766ZM103.177 108.044C102.785 108.044 102.4 107.926 102.074 107.704C101.747 107.482 101.493 107.168 101.342 106.799C101.192 106.431 101.152 106.025 101.229 105.634C101.305 105.243 101.495 104.883 101.772 104.601C102.05 104.319 102.404 104.127 102.789 104.049C103.174 103.971 103.574 104.011 103.937 104.164C104.3 104.316 104.61 104.575 104.828 104.906C105.047 105.238 105.163 105.628 105.163 106.027C105.163 106.291 105.112 106.554 105.012 106.798C104.912 107.043 104.766 107.265 104.582 107.453C104.397 107.64 104.178 107.789 103.937 107.89C103.696 107.991 103.438 108.044 103.177 108.044ZM104.889 120.766H101.462V109.574H104.889V120.766ZM119.426 100.783H99.7426C99.2959 100.778 98.8654 100.953 98.5457 101.27C98.2261 101.587 98.0435 102.02 98.0381 102.474V122.543C98.0434 122.997 98.2258 123.43 98.5454 123.747C98.865 124.064 99.2956 124.24 99.7426 124.235H119.426C119.874 124.241 120.306 124.066 120.627 123.748C120.947 123.431 121.131 122.997 121.137 122.543V102.472C121.131 102.018 120.947 101.584 120.626 101.267C120.305 100.95 119.874 100.777 119.426 100.783Z" fill="#0A66C2"/>
</g>
<mask id="mask18_1_2" style="mask-type:luminance" maskUnits="userSpaceOnUse" x="167" y="68" width="36" height="24">
<path d="M202.174 68.4273H167.948V91.9576H202.174V68.4273Z" fill="white"/>
</mask>
<g mask="url(#mask18_1_2)">
<mask id="mask19_1_2" style="mask-type:alpha" maskUnits="userSpaceOnUse" x="167" y="68" width="36" height="24">
<path d="M167.956 68.4889H202.056V91.896H167.956V68.4889Z" fill="white"/>
</mask>
<g mask="url(#mask19_1_2)">
<path fill-rule="evenodd" clip-rule="evenodd" d="M182.115 71.0514C183.216 69.9254 184.748 69.2281 186.44 69.2281C188.697 69.2281 190.653 70.46 191.706 72.2956C192.64 71.885 193.653 71.673 194.677 71.6735C198.739 71.6735 202.036 74.9382 202.036 78.9667C202.036 82.9952 198.739 86.2598 194.677 86.2598C194.18 86.2598 193.696 86.2108 193.223 86.1182C192.301 87.732 190.54 88.8285 188.534 88.8285C187.717 88.83 186.911 88.648 186.177 88.2963C185.243 90.4522 183.068 91.9675 180.535 91.9675C177.89 91.9675 175.646 90.329 174.781 88.0252C174.396 88.1051 174.003 88.1452 173.61 88.145C170.463 88.145 167.918 85.6071 167.918 82.4903C167.918 80.396 169.064 78.5727 170.764 77.5871C170.403 76.7707 170.218 75.89 170.219 75C170.219 71.4027 173.19 68.4953 176.851 68.4953C178.994 68.4953 180.913 69.4993 182.116 71.0578" fill="#00A1E0"/>
<path fill-rule="evenodd" clip-rule="evenodd" d="M172.888 80.6606C172.866 80.7155 172.895 80.727 172.902 80.7367C172.966 80.7823 173.031 80.8153 173.097 80.8524C173.445 81.0335 173.773 81.0865 174.117 81.0865C174.817 81.0865 175.252 80.7206 175.252 80.1317V80.1201C175.252 79.5756 174.76 79.3772 174.301 79.2356L174.241 79.2165C173.894 79.1058 173.594 79.0095 173.594 78.7853V78.7738C173.594 78.5817 173.77 78.44 174.041 78.44C174.342 78.44 174.7 78.5384 174.93 78.663C174.93 78.663 174.997 78.7061 175.022 78.6416C175.036 78.6068 175.153 78.2992 175.165 78.2647C175.178 78.2286 175.155 78.2013 175.131 78.1873C174.868 78.0296 174.504 77.9224 174.128 77.9224L174.058 77.9227C173.418 77.9227 172.97 78.3034 172.97 78.8479V78.8596C172.97 79.4337 173.464 79.6209 173.925 79.7503L174 79.773C174.336 79.8745 174.627 79.9627 174.627 80.1943V80.2059C174.627 80.419 174.437 80.5779 174.134 80.5779C174.016 80.5779 173.64 80.5759 173.232 80.3229C173.183 80.2947 173.155 80.2744 173.117 80.2516C173.097 80.2396 173.047 80.2181 173.025 80.2826L172.887 80.6596L172.888 80.6606ZM183.13 80.6596C183.108 80.7145 183.137 80.726 183.145 80.7357C183.208 80.7813 183.274 80.8143 183.339 80.8514C183.687 81.0325 184.016 81.0855 184.359 81.0855C185.059 81.0855 185.494 80.7196 185.494 80.1307V80.1191C185.494 79.5746 185.004 79.3763 184.544 79.2346L184.484 79.2155C184.136 79.1049 183.837 79.0085 183.837 78.7843V78.7729C183.837 78.5807 184.012 78.439 184.283 78.439C184.584 78.439 184.941 78.5374 185.172 78.662C185.172 78.662 185.24 78.7051 185.265 78.6407C185.278 78.6058 185.395 78.2982 185.406 78.2637C185.42 78.2276 185.396 78.2004 185.373 78.1863C185.109 78.0286 184.746 77.9214 184.37 77.9214L184.3 77.9217C183.659 77.9217 183.211 78.3024 183.211 78.8469V78.8586C183.211 79.4327 183.705 79.6199 184.167 79.7493L184.241 79.772C184.578 79.8735 184.868 79.9617 184.868 80.1933V80.2049C184.868 80.418 184.678 80.5769 184.375 80.5769C184.257 80.5769 183.88 80.575 183.474 80.3219C183.424 80.2937 183.395 80.2742 183.358 80.2506C183.345 80.2427 183.286 80.22 183.266 80.2816L183.128 80.6586L183.13 80.6596ZM190.124 79.5055C190.124 79.8381 190.061 80.1005 189.937 80.2866C189.814 80.4701 189.628 80.56 189.368 80.56C189.108 80.56 188.923 80.4709 188.801 80.2878C188.679 80.103 188.617 79.8394 188.617 79.5067C188.617 79.1741 188.679 78.9129 188.801 78.7294C188.923 78.547 189.107 78.4596 189.368 78.4596C189.629 78.4596 189.814 78.5479 189.937 78.7294C190.062 78.9129 190.124 79.1741 190.124 79.5067V79.5055ZM190.708 78.8895C190.651 78.6986 190.562 78.531 190.442 78.3906C190.323 78.2501 190.173 78.1368 189.994 78.0555C189.816 77.9736 189.605 77.9323 189.367 77.9323C189.129 77.9323 188.919 77.9738 188.74 78.0555C188.562 78.1373 188.41 78.2501 188.291 78.3906C188.172 78.531 188.083 78.6986 188.025 78.8895C187.968 79.0792 187.939 79.2862 187.939 79.5067C187.939 79.7272 187.968 79.9342 188.025 80.1239C188.083 80.3149 188.172 80.4824 188.291 80.6229C188.41 80.7633 188.562 80.8754 188.74 80.9555C188.919 81.0353 189.13 81.076 189.367 81.076C189.604 81.076 189.814 81.0353 189.992 80.9555C190.17 80.8757 190.322 80.7633 190.441 80.6229C190.56 80.4824 190.649 80.3149 190.707 80.1239C190.764 79.9342 190.793 79.7272 190.793 79.5067C190.793 79.2874 190.765 79.0792 190.708 78.8895ZM195.509 80.4664C195.489 80.4106 195.434 80.4317 195.434 80.4317C195.349 80.4636 195.258 80.4932 195.162 80.5079C195.065 80.523 194.956 80.5305 194.842 80.5305C194.56 80.5305 194.335 80.4478 194.174 80.2841C194.012 80.1202 193.922 79.8566 193.923 79.4993C193.924 79.1741 194.004 78.9302 194.148 78.7429C194.289 78.5581 194.508 78.462 194.796 78.462C195.037 78.462 195.221 78.4895 195.414 78.5489C195.414 78.5489 195.46 78.5685 195.482 78.5092C195.533 78.37 195.571 78.2702 195.626 78.1175C195.641 78.0737 195.603 78.0552 195.589 78.0499C195.514 78.0209 195.335 77.9732 195.199 77.9531C195.073 77.9341 194.926 77.9243 194.761 77.9243C194.515 77.9243 194.297 77.9656 194.11 78.0474C193.923 78.129 193.765 78.242 193.64 78.3824C193.514 78.5229 193.419 78.6904 193.355 78.8814C193.292 79.0711 193.26 79.2793 193.26 79.4998C193.26 79.9754 193.39 80.361 193.649 80.6431C193.907 80.9264 194.296 81.0693 194.802 81.0693C195.102 81.0693 195.409 81.0098 195.629 80.924C195.629 80.924 195.672 80.904 195.653 80.8557L195.509 80.4664ZM196.531 79.1852C196.559 79.0004 196.61 78.8464 196.691 78.7269C196.813 78.5446 196.997 78.4448 197.257 78.4448C197.516 78.4448 197.688 78.5451 197.811 78.7269C197.892 78.847 197.928 79.0066 197.941 79.1852L196.525 79.1849L196.531 79.1852ZM198.499 78.7786C198.449 78.5951 198.326 78.4091 198.246 78.3241C198.118 78.1898 197.994 78.0949 197.87 78.0432C197.691 77.9683 197.498 77.9299 197.303 77.9302C197.056 77.9302 196.832 77.9712 196.65 78.0546C196.468 78.1386 196.315 78.253 196.195 78.3959C196.075 78.5388 195.984 78.7076 195.927 78.901C195.869 79.0919 195.84 79.3014 195.84 79.5206C195.84 79.7449 195.87 79.9531 195.929 80.1416C195.99 80.3313 196.086 80.4976 196.217 80.6356C196.347 80.7748 196.514 80.8832 196.714 80.9596C196.914 81.0353 197.156 81.0746 197.433 81.0738C198.004 81.0719 198.305 80.9469 198.428 80.8791C198.45 80.867 198.471 80.8462 198.445 80.7862L198.316 80.4302C198.296 80.3771 198.241 80.3963 198.241 80.3963C198.1 80.4483 197.899 80.5417 197.429 80.5405C197.122 80.54 196.895 80.4509 196.752 80.3113C196.606 80.1684 196.534 79.9602 196.522 79.6645L198.503 79.666C198.503 79.666 198.555 79.6655 198.561 79.6155C198.563 79.5948 198.629 79.2164 198.502 78.779L198.499 78.7786ZM180.697 79.1852C180.725 79.0004 180.776 78.8464 180.857 78.7269C180.978 78.5446 181.163 78.4448 181.423 78.4448C181.682 78.4448 181.854 78.5451 181.977 78.7269C182.058 78.847 182.094 79.0066 182.107 79.1852L180.69 79.1849L180.697 79.1852ZM182.665 78.7786C182.615 78.5951 182.492 78.4091 182.412 78.3241C182.284 78.1898 182.16 78.0949 182.036 78.0432C181.856 77.9683 181.664 77.9299 181.469 77.9302C181.222 77.9302 180.998 77.9712 180.816 78.0546C180.634 78.1386 180.481 78.253 180.361 78.3959C180.241 78.5388 180.15 78.7076 180.092 78.901C180.035 79.0919 180.006 79.3014 180.006 79.5206C180.006 79.7449 180.036 79.9531 180.096 80.1416C180.156 80.3313 180.252 80.4976 180.381 80.6356C180.512 80.7748 180.679 80.8832 180.879 80.9596C181.079 81.0353 181.319 81.0746 181.598 81.0738C182.169 81.0719 182.47 80.9469 182.593 80.8791C182.615 80.867 182.636 80.8462 182.61 80.7862L182.481 80.4302C182.461 80.3771 182.406 80.3963 182.406 80.3963C182.264 80.4483 182.064 80.5417 181.594 80.5405C181.288 80.54 181.059 80.4509 180.917 80.3113C180.771 80.1684 180.698 79.9602 180.687 79.6645L182.668 79.666C182.668 79.666 182.72 79.6655 182.726 79.6155C182.728 79.5948 182.793 79.2164 182.666 78.779L182.665 78.7786ZM176.422 80.4541C176.344 80.3932 176.333 80.3783 176.307 80.3388C176.268 80.2793 176.248 80.1946 176.248 80.0862C176.248 79.9162 176.306 79.793 176.425 79.7105C176.424 79.7107 176.595 79.5651 176.999 79.57C177.179 79.5732 177.358 79.5882 177.536 79.615V80.4983C177.536 80.4983 177.285 80.5514 177.002 80.5682C176.599 80.592 176.421 80.4543 176.423 80.4547L176.422 80.4541ZM177.209 79.0866C177.129 79.0808 177.025 79.078 176.9 79.078C176.731 79.078 176.567 79.0987 176.414 79.1394C176.26 79.1803 176.121 79.2436 176.002 79.3278C175.882 79.4116 175.784 79.5212 175.714 79.6482C175.644 79.7763 175.609 79.9266 175.609 80.0966C175.609 80.2691 175.639 80.4181 175.699 80.5401C175.758 80.6611 175.847 80.7657 175.958 80.8444C176.068 80.923 176.203 80.9811 176.36 81.0156C176.515 81.0505 176.691 81.0681 176.884 81.0681C177.087 81.0681 177.289 81.0513 177.485 81.0189C177.651 80.9907 177.817 80.959 177.982 80.9238C178.048 80.9089 178.121 80.8893 178.121 80.8893C178.17 80.8772 178.167 80.8258 178.167 80.8258L178.165 79.0518C178.165 78.6625 178.06 78.373 177.851 78.1943C177.643 78.0157 177.338 77.9258 176.943 77.9258C176.795 77.9258 176.556 77.9455 176.413 77.9737C176.413 77.9737 175.982 78.056 175.803 78.193C175.803 78.193 175.764 78.2166 175.786 78.2702L175.926 78.6398C175.944 78.6877 175.991 78.6713 175.991 78.6713C175.991 78.6713 176.006 78.6655 176.024 78.6553C176.403 78.4521 176.885 78.4582 176.885 78.4582C177.098 78.4582 177.263 78.5007 177.374 78.5839C177.482 78.6653 177.537 78.7884 177.537 79.0471V79.1293C177.367 79.1051 177.211 79.0912 177.211 79.0912L177.209 79.0866ZM193.131 78.0851C193.134 78.0786 193.135 78.0716 193.135 78.0645C193.135 78.0574 193.134 78.0504 193.131 78.0439C193.128 78.0373 193.124 78.0314 193.119 78.0265C193.114 78.0215 193.108 78.0177 193.101 78.0151C193.067 78.0025 192.899 77.9676 192.77 77.9598C192.522 77.9445 192.384 77.9856 192.26 78.0403C192.137 78.0947 192.002 78.182 191.926 78.283V78.0465C191.926 78.014 191.903 77.9877 191.869 77.9877H191.363C191.33 77.9877 191.306 78.014 191.306 78.0465V80.9416C191.306 80.9572 191.313 80.9722 191.324 80.9833C191.335 80.9943 191.35 81.0006 191.366 81.0006H191.885C191.901 81.0006 191.916 80.9943 191.928 80.9833C191.939 80.9722 191.945 80.9572 191.945 80.9416V79.4879C191.945 79.2932 191.967 79.0998 192.011 78.9778C192.053 78.8572 192.112 78.761 192.184 78.692C192.252 78.6254 192.336 78.576 192.428 78.5479C192.514 78.5235 192.604 78.5112 192.694 78.5112C192.797 78.5112 192.911 78.5373 192.911 78.5373C192.949 78.5415 192.97 78.5186 192.983 78.4848C193.017 78.396 193.113 78.13 193.132 78.077" fill="#FFFFFE"/>
<path fill-rule="evenodd" clip-rule="evenodd" d="M188.283 76.7489C188.219 76.7299 188.154 76.7146 188.088 76.7033C187.999 76.6888 187.909 76.6819 187.819 76.6829C187.461 76.6829 187.179 76.7822 186.981 76.9783C186.785 77.173 186.651 77.4695 186.584 77.8597L186.56 77.9913H186.111C186.111 77.9913 186.056 77.9891 186.045 78.0479L185.971 78.452C185.966 78.4907 185.983 78.5148 186.035 78.5146H186.472L186.029 80.9468C185.994 81.1427 185.954 81.3038 185.91 81.4259C185.867 81.5464 185.825 81.6367 185.772 81.7022C185.722 81.7657 185.674 81.8124 185.591 81.8396C185.523 81.8621 185.445 81.8725 185.359 81.8725C185.311 81.8725 185.247 81.8646 185.2 81.8554C185.153 81.8463 185.129 81.8359 185.093 81.8214C185.093 81.8214 185.042 81.8022 185.022 81.8527C185.006 81.8939 184.889 82.2087 184.875 82.2476C184.861 82.2861 184.881 82.3164 184.906 82.3251C184.964 82.3456 185.007 82.3586 185.086 82.377C185.197 82.4025 185.289 82.4041 185.376 82.4041C185.558 82.4041 185.724 82.379 185.862 82.3302C186 82.281 186.12 82.1954 186.227 82.0795C186.342 81.9544 186.415 81.8235 186.484 81.6448C186.553 81.4678 186.611 81.248 186.658 80.9919L187.103 78.5146H187.755C187.755 78.5146 187.81 78.5165 187.821 78.458L187.895 78.0539C187.9 78.0152 187.883 77.9911 187.83 77.9913H187.198C187.201 77.9773 187.23 77.7588 187.302 77.553C187.333 77.4652 187.392 77.3943 187.441 77.3457C187.487 77.2993 187.544 77.2646 187.607 77.2444C187.675 77.2235 187.747 77.2134 187.819 77.2144C187.879 77.2144 187.937 77.2214 187.981 77.2305C188.043 77.2433 188.067 77.2501 188.083 77.2548C188.147 77.2741 188.156 77.2554 188.168 77.2247L188.32 76.8167C188.335 76.7728 188.297 76.7543 188.283 76.7489ZM179.448 80.952C179.448 80.9845 179.424 81.011 179.391 81.011H178.867C178.834 81.011 178.81 80.9845 178.81 80.952V76.8042C178.81 76.7718 178.834 76.7456 178.867 76.7456H179.391C179.424 76.7456 179.448 76.7718 179.448 76.8042V80.952Z" fill="#FFFFFE"/>
</g>
</g>
<mask id="mask20_1_2" style="mask-type:luminance" maskUnits="userSpaceOnUse" x="247" y="100" width="28" height="21">
<path d="M274.8 100.782H247.363V120.636H274.8V100.782Z" fill="white"/>
</mask>
<g mask="url(#mask20_1_2)">
<path d="M272.549 100.783C273.785 100.783 274.797 101.795 274.797 103.031V103.682L271.674 105.913L261.042 113.237L250.411 105.839V120.634H249.611C248.374 120.634 247.363 119.622 247.363 118.386V103.031C247.363 101.795 248.374 100.784 249.611 100.784L261.042 109.259L272.548 100.784L272.549 100.783Z" fill="#E75A4D"/>
<path d="M249.61 100.783L261.042 109.259L272.549 100.783H249.61Z" fill="url(#paint2_linear_1_2)"/>
<path d="M250.411 105.839V120.634H271.674V105.913L261.042 113.237L250.411 105.839Z" fill="#E7E4D7"/>
<path d="M250.411 120.634L261.042 113.237L260.994 113.203L250.411 120.471V120.634Z" fill="#B8B7AE"/>
<path d="M271.675 105.913L271.681 120.634L261.042 113.237L271.675 105.913Z" fill="#B7B6AD"/>
<path d="M274.797 103.682L274.8 118.388C274.747 120.022 274.038 120.606 271.68 120.633L271.674 105.912L274.797 103.682Z" fill="#B2392F"/>
<path d="M249.61 100.783L261.042 109.259L272.549 100.783H249.61Z" fill="url(#paint3_linear_1_2)"/>
<path d="M249.61 100.783L261.042 109.259L272.549 100.783H249.61Z" fill="url(#paint4_linear_1_2)"/>
<path d="M249.61 100.783L261.042 109.259L272.549 100.783H249.61Z" fill="url(#paint5_linear_1_2)"/>
<path d="M249.61 100.783L261.042 109.259L272.549 100.783H249.61Z" fill="url(#paint6_linear_1_2)"/>
<path d="M249.61 100.783L261.042 109.259L272.549 100.783H249.61Z" fill="url(#paint7_linear_1_2)"/>
<path d="M249.61 100.783L261.042 109.259L272.549 100.783H249.61Z" fill="url(#paint8_linear_1_2)"/>
<path d="M249.61 100.783L261.042 109.259L272.549 100.783H249.61Z" fill="url(#paint9_linear_1_2)"/>
<path d="M249.61 100.783L261.042 109.259L272.549 100.783H249.61Z" fill="#F7F5ED"/>
</g>
<mask id="mask21_1_2" style="mask-type:luminance" maskUnits="userSpaceOnUse" x="282" y="173" width="22" height="24">
<path d="M303.58 173.211H282.291V196.741H303.58V173.211Z" fill="white"/>
</mask>
<g mask="url(#mask21_1_2)">
<path d="M300.899 177.831C300.883 177.714 300.776 177.649 300.688 177.641C300.601 177.634 298.744 177.501 298.744 177.501C298.744 177.501 297.454 176.26 297.313 176.123C297.171 175.986 296.895 176.028 296.787 176.058C296.772 176.063 296.506 176.142 296.066 176.274C295.635 175.073 294.875 173.969 293.538 173.969C293.501 173.969 293.463 173.971 293.425 173.973C293.044 173.485 292.573 173.274 292.166 173.274C289.051 173.274 287.563 177.048 287.096 178.966C285.885 179.329 285.025 179.588 284.915 179.621C284.24 179.826 284.218 179.847 284.13 180.464C284.063 180.931 282.295 194.181 282.295 194.181L296.072 196.683L303.536 195.118C303.536 195.118 300.916 177.949 300.899 177.831ZM295.304 176.502L294.139 176.852C294.139 176.772 294.14 176.694 294.14 176.608C294.14 175.862 294.033 175.261 293.861 174.784C294.55 174.868 295.009 175.628 295.304 176.502ZM293.006 174.932C293.198 175.398 293.322 176.065 293.322 176.966C293.322 177.012 293.322 177.054 293.322 177.097C292.563 177.325 291.74 177.572 290.914 177.82C291.378 176.086 292.247 175.248 293.006 174.932ZM292.081 174.083C292.215 174.083 292.351 174.128 292.48 174.214C291.482 174.669 290.412 175.816 289.96 178.106L288.057 178.677C288.586 176.931 289.843 174.083 292.081 174.083Z" fill="#95BF46"/>
<path d="M300.688 177.641C300.601 177.634 298.744 177.501 298.744 177.501C298.744 177.501 297.455 176.26 297.313 176.123C297.26 176.072 297.189 176.046 297.114 176.035L296.072 196.683L303.536 195.118C303.536 195.118 300.916 177.949 300.899 177.831C300.883 177.714 300.776 177.649 300.688 177.641Z" fill="#5E8E3E"/>
<path d="M293.537 181.639L292.617 184.292C292.617 184.292 291.81 183.875 290.822 183.875C289.373 183.875 289.3 184.756 289.3 184.978C289.3 186.19 292.559 186.654 292.559 189.493C292.559 191.726 291.098 193.164 289.127 193.164C286.762 193.164 285.553 191.738 285.553 191.738L286.186 189.71C286.186 189.71 287.429 190.744 288.478 190.744C289.163 190.744 289.442 190.221 289.442 189.839C289.442 188.259 286.768 188.188 286.768 185.591C286.768 183.405 288.387 181.289 291.656 181.289C292.915 181.289 293.537 181.639 293.537 181.639Z" fill="white"/>
</g>
<mask id="mask22_1_2" style="mask-type:luminance" maskUnits="userSpaceOnUse" x="36" y="87" width="25" height="25">
<path d="M60.1651 87.9133H36.3252V111.444H60.1651V87.9133Z" fill="white"/>
</mask>
<g mask="url(#mask22_1_2)">
<path d="M48.2452 111.444C54.8284 111.444 60.1651 106.176 60.1651 99.6786C60.1651 93.1808 54.8284 87.9134 48.2452 87.9134C41.6619 87.9134 36.3252 93.1808 36.3252 99.6786C36.3252 106.176 41.6619 111.444 48.2452 111.444Z" fill="#3C5A9A"/>
<path d="M52.1212 91.5246H49.4807C47.9137 91.5246 46.1707 92.1751 46.1707 94.417C46.1784 95.1982 46.1707 95.9463 46.1707 96.7883H44.3579V99.6356H46.2268V107.832H49.661V99.5815H51.9277L52.1328 96.7803H49.6018C49.6018 96.7803 49.6075 95.5343 49.6018 95.1724C49.6018 94.2864 50.5359 94.3372 50.592 94.3372C51.0365 94.3372 51.9007 94.3384 52.1225 94.3372V91.5246H52.1212Z" fill="white"/>
</g>
<mask id="mask23_1_2" style="mask-type:luminance" maskUnits="userSpaceOnUse" x="248" y="251" width="31" height="20">
<path d="M278.203 251.89H248.466V270.273H278.203V251.89Z" fill="white"/>
</mask>
<g mask="url(#mask23_1_2)">
<path d="M252.157 269.961C251.501 269.962 250.857 269.788 250.289 269.458C249.722 269.127 249.252 268.651 248.928 268.078C248.609 267.509 248.449 266.864 248.467 266.211C248.485 265.559 248.679 264.923 249.029 264.373L255.68 253.882C256.02 253.318 256.503 252.855 257.08 252.54C257.657 252.226 258.306 252.07 258.962 252.09C259.618 252.106 260.258 252.296 260.816 252.642C261.374 252.988 261.831 253.476 262.14 254.058C262.76 255.235 262.682 256.652 261.94 257.757L255.294 268.248C254.956 268.776 254.492 269.209 253.944 269.508C253.396 269.808 252.781 269.963 252.157 269.961Z" fill="#F62B54"/>
<path d="M263.564 269.96C262.223 269.96 260.988 269.24 260.34 268.082C260.022 267.515 259.863 266.871 259.881 266.22C259.899 265.569 260.093 264.936 260.442 264.387L267.079 253.92C267.415 253.348 267.896 252.877 268.474 252.555C269.052 252.234 269.705 252.073 270.365 252.09C271.718 252.12 272.943 252.88 273.563 254.069C274.179 255.258 274.089 256.683 273.324 257.786L266.688 268.252C266.352 268.777 265.889 269.209 265.343 269.508C264.798 269.806 264.186 269.962 263.564 269.96Z" fill="#FFCC00"/>
<path d="M274.716 270.048C276.607 270.048 278.14 268.541 278.14 266.681C278.14 264.821 276.607 263.314 274.716 263.314C272.825 263.314 271.292 264.821 271.292 266.681C271.292 268.541 272.825 270.048 274.716 270.048Z" fill="#00CA72"/>
</g>
<mask id="mask24_1_2" style="mask-type:luminance" maskUnits="userSpaceOnUse" x="299" y="69" width="18" height="17">
<path d="M316.115 69.1626H299.938V85.3397H316.115V69.1626Z" fill="white"/>
</mask>
<g mask="url(#mask24_1_2)">
<path d="M303.443 69.1626H312.611C314.545 69.1626 316.116 70.7329 316.116 72.6671V81.8352C316.116 83.7694 314.545 85.3397 312.611 85.3397H303.443C301.509 85.3397 299.938 83.7694 299.938 81.8352V72.6671C299.938 70.7329 301.509 69.1626 303.443 69.1626Z" fill="#FFD02F"/>
<path d="M311.18 71.183H309.404L310.883 73.7826L307.627 71.183H305.851L307.479 74.3619L304.075 71.183H302.299L304.075 75.2284L302.299 83.3194H304.075L307.479 74.6491L305.851 83.3194H307.627L310.883 74.0746L309.404 83.3194H311.18L314.435 73.2033L311.18 71.183Z" fill="#050038"/>
</g>
<path fill-rule="evenodd" clip-rule="evenodd" d="M135.042 196.153C134.451 196.153 133.981 195.988 133.656 195.655C132.858 194.841 133.03 193.088 134.126 190.837C136.271 186.449 141.301 181.357 145.336 179.486C147.18 178.633 148.589 178.563 149.297 179.291C150.096 180.105 149.923 181.862 148.827 184.109C146.682 188.497 141.653 193.589 137.617 195.46C136.615 195.922 135.743 196.153 135.042 196.153ZM134.208 190.876C133.128 193.088 132.952 194.81 133.719 195.593C134.404 196.29 135.774 196.211 137.578 195.378C141.602 193.514 146.608 188.442 148.745 184.07C149.826 181.858 150.002 180.136 149.235 179.353C148.553 178.657 147.184 178.735 145.375 179.569C141.355 181.432 136.345 186.504 134.208 190.876Z" fill="#5F4C94"/>
<path fill-rule="evenodd" clip-rule="evenodd" d="M134.618 196.274C133.926 196.274 133.389 196.074 133.041 195.679C132.227 194.751 132.528 192.833 133.859 190.422C136.38 185.874 141.832 180.841 146.016 179.197C147.856 178.477 149.238 178.5 149.911 179.267C150.725 180.199 150.427 182.113 149.093 184.524C146.576 189.072 141.12 194.109 136.936 195.749C136.047 196.098 135.264 196.274 134.618 196.274ZM148.337 178.762C147.703 178.762 146.928 178.934 146.051 179.283C141.883 180.915 136.45 185.937 133.941 190.469C132.626 192.841 132.321 194.72 133.108 195.616C133.753 196.356 135.104 196.372 136.904 195.663C141.073 194.031 146.502 189.013 149.011 184.481C150.326 182.105 150.631 180.226 149.844 179.33C149.512 178.954 148.999 178.762 148.337 178.762Z" fill="#5F4C94"/>
<path fill-rule="evenodd" clip-rule="evenodd" d="M134.228 196.366C133.413 196.366 132.795 196.124 132.427 195.65C131.601 194.597 132.043 192.519 133.633 189.951C136.537 185.266 142.408 180.33 146.721 178.949C148.541 178.366 149.896 178.491 150.53 179.301C151.352 180.354 150.909 182.432 149.32 185C146.416 189.685 140.545 194.621 136.232 196.003C135.48 196.245 134.803 196.366 134.228 196.366ZM148.725 178.675C148.162 178.675 147.496 178.796 146.749 179.035C142.451 180.409 136.603 185.329 133.711 190.002C132.141 192.535 131.699 194.57 132.497 195.595C133.104 196.374 134.423 196.488 136.204 195.916C140.502 194.543 146.349 189.623 149.242 184.953C150.812 182.421 151.254 180.381 150.455 179.356C150.103 178.906 149.508 178.675 148.725 178.675Z" fill="#5F4C94"/>
<path fill-rule="evenodd" clip-rule="evenodd" d="M133.864 196.431C132.909 196.431 132.208 196.141 131.809 195.562C130.983 194.368 131.582 192.129 133.445 189.417C136.749 184.618 143.027 179.827 147.442 178.739C149.262 178.293 150.542 178.516 151.145 179.385C151.97 180.579 151.372 182.818 149.508 185.53C146.209 190.329 139.927 195.12 135.512 196.208C134.901 196.357 134.349 196.431 133.864 196.431ZM149.09 178.606C148.612 178.606 148.072 178.68 147.465 178.829C143.066 179.913 136.811 184.685 133.519 189.468C131.676 192.145 131.081 194.349 131.883 195.511C132.463 196.349 133.707 196.556 135.488 196.118C139.888 195.037 146.142 190.262 149.434 185.479C151.278 182.802 151.873 180.598 151.07 179.436C150.687 178.884 150.013 178.606 149.09 178.606Z" fill="#5F4C94"/>
<path fill-rule="evenodd" clip-rule="evenodd" d="M133.577 196.472C132.434 196.472 131.62 196.116 131.197 195.419C130.379 194.069 131.147 191.662 133.303 188.824C137.01 183.939 143.683 179.348 148.181 178.588C149.962 178.287 151.198 178.612 151.754 179.532C152.572 180.882 151.805 183.289 149.648 186.127C145.942 191.012 139.268 195.603 134.771 196.362C134.34 196.435 133.943 196.472 133.577 196.472ZM149.374 178.569C149.014 178.569 148.622 178.605 148.196 178.678C143.719 179.434 137.072 184.009 133.378 188.879C131.276 191.646 130.489 194.073 131.276 195.372C131.812 196.257 133.014 196.566 134.755 196.272C139.233 195.517 145.879 190.941 149.574 186.072C151.676 183.305 152.463 180.878 151.676 179.579C151.273 178.909 150.486 178.569 149.374 178.569Z" fill="#5F4C94"/>
<path fill-rule="evenodd" clip-rule="evenodd" d="M133.374 196.487C131.993 196.487 131.038 196.052 130.599 195.207C129.812 193.704 130.791 191.069 133.218 188.161C137.335 183.226 144.385 178.885 148.929 178.49C150.663 178.337 151.849 178.771 152.354 179.742C153.14 181.245 152.162 183.879 149.735 186.787C145.618 191.723 138.568 196.064 134.024 196.459C133.797 196.477 133.58 196.487 133.374 196.487ZM133.288 188.22C130.885 191.101 129.91 193.696 130.677 195.164C131.167 196.099 132.321 196.518 134.016 196.369C138.541 195.974 145.559 191.649 149.665 186.729C152.068 183.848 153.043 181.253 152.275 179.785C151.786 178.85 150.631 178.431 148.937 178.58C144.412 178.975 137.394 183.3 133.288 188.22Z" fill="#5F4C94"/>
<path fill-rule="evenodd" clip-rule="evenodd" d="M133.272 196.493C133.27 196.493 133.268 196.493 133.268 196.493C131.589 196.489 130.462 195.949 130.008 194.92C129.264 193.229 130.45 190.43 133.186 187.44C137.719 182.485 145.12 178.453 149.68 178.453C149.683 178.453 149.684 178.453 149.684 178.453C151.363 178.457 152.49 178.997 152.945 180.027C153.688 181.717 152.502 184.516 149.766 187.506C145.234 192.462 137.836 196.493 133.272 196.493ZM149.68 178.547C145.14 178.547 137.773 182.563 133.257 187.502C130.544 190.465 129.362 193.225 130.09 194.884C130.529 195.875 131.628 196.399 133.268 196.399C133.268 196.399 133.27 196.399 133.272 196.399C137.813 196.403 145.179 192.383 149.7 187.444C152.408 184.481 153.59 181.721 152.862 180.062C152.424 179.072 151.324 178.547 149.684 178.547C149.684 178.547 149.683 178.547 149.68 178.547Z" fill="#5F4C94"/>
<path fill-rule="evenodd" clip-rule="evenodd" d="M133.277 196.496C133.013 196.496 132.759 196.484 132.514 196.46C130.893 196.304 129.829 195.646 129.437 194.554C128.756 192.656 130.169 189.705 133.222 186.659C138.17 181.724 145.892 178.06 150.44 178.491C152.061 178.647 153.125 179.305 153.517 180.397C154.198 182.299 152.785 185.25 149.732 188.292C145.051 192.965 137.888 196.496 133.277 196.496ZM149.673 178.549C145.09 178.549 137.95 182.068 133.285 186.722C130.259 189.74 128.854 192.656 129.523 194.523C129.903 195.58 130.94 196.218 132.521 196.37C137.046 196.801 144.737 193.149 149.669 188.229C152.695 185.211 154.1 182.295 153.431 180.428C153.051 179.371 152.014 178.733 150.432 178.581C150.187 178.557 149.934 178.547 149.673 178.549Z" fill="#5F4C94"/>
<path fill-rule="evenodd" clip-rule="evenodd" d="M133.409 196.499C132.822 196.499 132.27 196.452 131.765 196.351C130.208 196.037 129.213 195.259 128.893 194.092C128.301 191.967 129.961 188.875 133.323 185.814C138.682 180.937 146.698 177.7 151.187 178.6C152.745 178.913 153.739 179.696 154.064 180.859C154.651 182.984 152.996 186.076 149.629 189.137C144.874 193.466 138.028 196.499 133.409 196.499ZM149.539 178.541C144.94 178.541 138.122 181.567 133.382 185.88C130.047 188.918 128.399 191.979 128.979 194.065C129.292 195.196 130.262 195.955 131.781 196.261C132.286 196.362 132.83 196.409 133.413 196.409C138.012 196.409 144.831 193.384 149.571 189.07C152.906 186.033 154.553 182.972 153.974 180.886C153.661 179.755 152.69 178.995 151.172 178.69C150.667 178.588 150.123 178.541 149.539 178.541Z" fill="#5F4C94"/>
<path fill-rule="evenodd" clip-rule="evenodd" d="M133.691 196.527C132.704 196.527 131.804 196.409 131.025 196.163C129.534 195.685 128.618 194.773 128.375 193.521C127.917 191.161 129.831 187.943 133.495 184.906C139.26 180.135 147.527 177.391 151.926 178.788C153.418 179.266 154.334 180.178 154.576 181.43C155.034 183.79 153.12 187.008 149.457 190.045C144.713 193.971 138.27 196.527 133.691 196.527ZM149.257 178.514C144.697 178.514 138.282 181.062 133.554 184.976C129.917 187.99 128.011 191.176 128.465 193.505C128.7 194.722 129.596 195.611 131.053 196.077C135.425 197.466 143.656 194.73 149.398 189.975C153.038 186.961 154.94 183.775 154.486 181.446C154.251 180.229 153.355 179.34 151.899 178.878C151.128 178.632 150.236 178.514 149.257 178.514Z" fill="#5F4C94"/>
<path fill-rule="evenodd" clip-rule="evenodd" d="M134.137 196.587C132.67 196.587 131.362 196.36 130.309 195.883C128.885 195.237 128.051 194.18 127.902 192.83C127.62 190.223 129.804 186.904 133.75 183.941C139.911 179.318 148.385 177.13 152.643 179.064C154.068 179.71 154.902 180.766 155.05 182.117C155.332 184.724 153.148 188.047 149.203 191.006C144.565 194.489 138.615 196.587 134.137 196.587ZM148.807 178.445C144.357 178.445 138.427 180.543 133.805 184.015C129.887 186.955 127.714 190.246 127.996 192.818C128.137 194.137 128.951 195.17 130.345 195.801C134.58 197.722 143.015 195.538 149.148 190.935C153.07 187.992 155.238 184.7 154.96 182.129C154.816 180.81 154.001 179.78 152.608 179.146C151.563 178.672 150.263 178.445 148.807 178.445Z" fill="#5F4C94"/>
<path fill-rule="evenodd" clip-rule="evenodd" d="M134.764 196.709C132.721 196.709 130.932 196.325 129.617 195.519C128.259 194.685 127.523 193.468 127.488 192C127.425 189.15 129.891 185.757 134.087 182.919C140.627 178.496 149.262 176.931 153.337 179.428C154.695 180.262 155.431 181.479 155.466 182.951C155.528 185.796 153.063 189.19 148.867 192.027C144.44 195.022 139.05 196.709 134.764 196.709ZM148.186 178.328C143.923 178.328 138.553 180.007 134.138 182.998C129.969 185.816 127.519 189.182 127.582 191.996C127.613 193.433 128.333 194.626 129.664 195.44C133.711 197.922 142.303 196.356 148.816 191.953C152.984 189.131 155.438 185.769 155.372 182.951C155.341 181.514 154.62 180.32 153.29 179.506C151.986 178.708 150.213 178.328 148.186 178.328Z" fill="#5F4C94"/>
<path fill-rule="evenodd" clip-rule="evenodd" d="M135.554 196.905C132.853 196.905 130.508 196.306 128.958 195.058C127.667 194.021 127.041 192.619 127.15 191.011C127.358 187.934 130.105 184.509 134.509 181.848C141.409 177.679 150.149 176.798 153.993 179.891C155.285 180.928 155.911 182.329 155.801 183.938C155.594 187.014 152.846 190.439 148.443 193.101C144.325 195.59 139.55 196.905 135.554 196.905ZM147.398 178.129C143.417 178.129 138.662 179.444 134.556 181.926C130.18 184.572 127.444 187.969 127.24 191.014C127.134 192.596 127.749 193.97 129.017 194.987C132.83 198.056 141.527 197.175 148.396 193.022C152.772 190.376 155.508 186.979 155.711 183.934C155.817 182.353 155.202 180.979 153.938 179.961C152.4 178.728 150.075 178.129 147.398 178.129Z" fill="#5F4C94"/>
<path fill-rule="evenodd" clip-rule="evenodd" d="M136.478 197.204C133.049 197.204 130.078 196.304 128.345 194.495C127.123 193.227 126.63 191.619 126.912 189.846C127.436 186.569 130.466 183.16 135.026 180.73C142.263 176.866 151.05 176.741 154.608 180.456C155.829 181.724 156.322 183.336 156.041 185.106C155.516 188.382 152.487 191.791 147.931 194.221C144.216 196.206 140.091 197.204 136.478 197.204ZM146.479 177.837C142.878 177.837 138.772 178.831 135.065 180.808C130.536 183.227 127.519 186.609 127.002 189.857C126.724 191.603 127.209 193.184 128.411 194.433C131.942 198.12 140.678 197.987 147.888 194.143C152.416 191.724 155.434 188.342 155.951 185.094C156.229 183.348 155.743 181.767 154.542 180.518C152.827 178.726 149.88 177.837 146.479 177.837Z" fill="#5F4C94"/>
<path fill-rule="evenodd" clip-rule="evenodd" d="M137.476 197.615C133.272 197.615 129.624 196.319 127.781 193.83C126.642 192.292 126.305 190.444 126.802 188.487C127.679 185.055 130.983 181.72 135.636 179.563C143.187 176.064 151.95 176.765 155.172 181.121C156.311 182.659 156.647 184.507 156.15 186.464C155.273 189.896 151.97 193.235 147.316 195.388C144.083 196.887 140.623 197.615 137.476 197.615ZM145.484 177.422C142.345 177.422 138.901 178.15 135.672 179.645C131.045 181.79 127.761 185.102 126.892 188.511C126.399 190.437 126.732 192.261 127.855 193.775C131.053 198.1 139.766 198.789 147.281 195.306C151.907 193.161 155.191 189.85 156.06 186.444C156.553 184.515 156.221 182.691 155.097 181.176C153.273 178.706 149.653 177.422 145.484 177.422Z" fill="#5F4C94"/>
<path fill-rule="evenodd" clip-rule="evenodd" d="M138.47 198.157C133.487 198.157 129.131 196.344 127.279 193.053C126.234 191.201 126.089 189.084 126.857 186.923C128.113 183.401 131.659 180.195 136.344 178.355C144.173 175.283 152.842 176.868 155.672 181.894C156.717 183.745 156.862 185.863 156.095 188.023C154.838 191.55 151.292 194.751 146.607 196.591C143.902 197.652 141.1 198.157 138.47 198.157ZM144.486 176.88C141.867 176.88 139.072 177.381 136.38 178.441C131.718 180.269 128.187 183.455 126.943 186.955C126.183 189.088 126.328 191.182 127.358 193.01C130.168 197.996 138.787 199.566 146.572 196.509C151.237 194.677 154.764 191.495 156.009 187.992C156.768 185.859 156.623 183.765 155.594 181.937C153.758 178.676 149.437 176.88 144.486 176.88Z" fill="#5F4C94"/>
<path fill-rule="evenodd" clip-rule="evenodd" d="M139.395 198.842C133.641 198.842 128.596 196.36 126.846 192.168C125.922 189.957 126.012 187.534 127.108 185.166C128.744 181.62 132.502 178.61 137.16 177.119C145.227 174.531 153.728 177.072 156.108 182.778C157.032 184.99 156.942 187.413 155.846 189.781C154.209 193.327 150.452 196.337 145.794 197.828C143.649 198.517 141.477 198.842 139.395 198.842ZM143.563 176.195C141.489 176.195 139.324 176.52 137.187 177.205C132.553 178.692 128.819 181.682 127.19 185.205C126.106 187.55 126.016 189.945 126.928 192.133C128.666 196.29 133.676 198.752 139.391 198.752C141.465 198.752 143.63 198.427 145.767 197.742C150.401 196.259 154.135 193.268 155.763 189.742C156.848 187.397 156.938 185.002 156.026 182.814C154.292 178.657 149.278 176.195 143.563 176.195Z" fill="#5F4C94"/>
<path fill-rule="evenodd" clip-rule="evenodd" d="M140.185 199.664C133.695 199.664 128.008 196.348 126.493 191.17C125.722 188.544 126.102 185.792 127.581 183.216C129.617 179.682 133.441 176.997 138.079 175.854C146.338 173.819 154.585 177.373 156.46 183.776C157.231 186.403 156.855 189.154 155.371 191.73C153.336 195.264 149.512 197.949 144.874 199.092C143.296 199.48 141.719 199.664 140.185 199.664ZM142.768 175.373C141.242 175.373 139.672 175.557 138.098 175.944C133.488 177.079 129.683 179.749 127.66 183.263C126.192 185.815 125.816 188.54 126.579 191.143C128.082 196.286 133.734 199.574 140.185 199.574C141.711 199.574 143.281 199.39 144.854 199.002C149.465 197.867 153.269 195.198 155.293 191.683C156.761 189.131 157.137 186.406 156.373 183.804C154.87 178.661 149.218 175.373 142.768 175.373Z" fill="#5F4C94"/>
<path fill-rule="evenodd" clip-rule="evenodd" d="M140.808 200.629C133.613 200.632 127.378 196.3 126.228 190.057C125.664 187.004 126.404 183.825 128.306 181.109C130.678 177.715 134.615 175.336 139.105 174.576C147.512 173.155 155.419 177.782 156.726 184.894C157.29 187.947 156.55 191.125 154.648 193.845C152.276 197.235 148.342 199.615 143.853 200.374C142.827 200.546 141.81 200.629 140.808 200.629ZM142.146 174.412C141.152 174.412 140.138 174.494 139.117 174.666C134.651 175.422 130.741 177.79 128.38 181.16C126.494 183.857 125.758 187.011 126.318 190.041C127.457 196.241 133.657 200.539 140.808 200.539C141.802 200.539 142.815 200.456 143.837 200.284C148.303 199.529 152.217 197.161 154.573 193.791C156.464 191.094 157.196 187.939 156.636 184.91C155.497 178.71 149.297 174.412 142.146 174.412Z" fill="#5F4C94"/>
<path fill-rule="evenodd" clip-rule="evenodd" d="M141.241 201.729C133.366 201.729 126.705 196.19 126.059 188.824C125.374 181.004 131.734 174.033 140.236 173.289C144.353 172.929 148.353 174.064 151.5 176.491C154.647 178.914 156.561 182.338 156.894 186.127C157.227 189.916 155.931 193.619 153.254 196.554C150.577 199.49 146.835 201.302 142.717 201.662C142.224 201.705 141.727 201.729 141.241 201.729ZM141.727 173.313C141.236 173.313 140.742 173.335 140.243 173.379C131.793 174.119 125.472 181.043 126.149 188.816C126.791 196.136 133.413 201.635 141.241 201.635C141.727 201.638 142.216 201.617 142.709 201.572C146.803 201.216 150.526 199.412 153.187 196.496C155.849 193.58 157.133 189.9 156.804 186.135C156.475 182.37 154.569 178.968 151.442 176.561C148.694 174.444 145.293 173.313 141.727 173.313Z" fill="#5F4C94"/>
<path fill-rule="evenodd" clip-rule="evenodd" d="M141.476 202.949C132.944 202.949 126 196.009 126 187.476C126 178.94 132.944 172 141.476 172C150.009 172 156.953 178.94 156.953 187.476C156.953 196.009 150.009 202.949 141.476 202.949ZM141.476 172.09C132.995 172.09 126.09 178.991 126.09 187.476C126.09 195.958 132.995 202.859 141.476 202.859C149.958 202.859 156.863 195.958 156.863 187.476C156.863 178.991 149.958 172.09 141.476 172.09Z" fill="#5F4C94"/>
<path d="M171.277 196.263C176.861 196.263 179.933 193.323 179.933 187.21C179.933 181.098 176.827 178.157 171.277 178.157H166.42V196.263H171.277ZM163.644 198.774V175.646H171.277C178.38 175.646 182.775 179.644 182.775 187.21C182.775 194.942 178.314 198.774 171.277 198.774H163.644Z" fill="black"/>
<path d="M189.755 199.303C186.253 199.303 183.874 197.486 183.874 194.578C183.874 191.406 186.087 189.655 190.052 189.655H192.068C195.14 189.655 196.891 189.325 196.891 187.012C196.891 185.525 195.735 183.51 191.935 183.51C189.094 183.51 187.046 184.997 186.649 187.607H183.94C184.303 183.675 187.409 181.197 191.969 181.197C196.726 181.197 199.535 183.378 199.535 187.078V198.774H197.024L196.891 194.083H196.759C196.099 197.288 193.389 199.303 189.755 199.303ZM186.682 194.215C186.682 195.966 187.772 197.056 190.35 197.056C194.38 197.056 196.891 193.951 196.891 191.208V189.292H196.759C196.528 190.779 195.107 191.439 192.068 191.439H189.986C187.872 191.439 186.682 192.431 186.682 194.215Z" fill="black"/>
<path d="M202.766 198.774V181.726H205.277L205.442 185.922H205.64C206.565 182.882 208.713 181.197 211.687 181.197C215.387 181.197 217.832 183.708 217.832 187.442V198.774H215.189V188.069C215.189 185.195 213.735 183.642 210.695 183.642C207.59 183.642 205.442 186.186 205.442 189.986V198.774H202.766Z" fill="black"/>
<path d="M218.922 183.708V181.726H221.961V177.265H224.604V181.726H229.296V183.708H224.604V194.215C224.604 196.065 225.298 196.792 227.049 196.792C227.71 196.792 228.437 196.693 229.296 196.495V198.609C228.503 198.807 227.644 198.94 226.818 198.94C223.349 198.94 221.961 197.783 221.961 194.446V183.708H218.922Z" fill="black"/>
<path d="M238.004 199.303C233.081 199.303 229.546 196.329 229.546 190.184C229.546 184.468 232.982 181.197 237.938 181.197C242.564 181.197 246 184.633 246 189.457C246 189.854 245.967 190.25 245.934 190.68H232.189C232.255 194.81 234.7 196.99 238.004 196.99C240.846 196.99 242.663 195.14 243.159 192.794H245.868C245.372 196.693 242.233 199.303 238.004 199.303ZM232.189 188.829H243.291C243.093 185.624 241.11 183.51 237.839 183.51C234.766 183.51 232.421 185.327 232.189 188.829Z" fill="black"/>
<defs>
<linearGradient id="paint0_linear_1_2" x1="260.148" y1="41.8345" x2="254.868" y2="50.9807" gradientUnits="userSpaceOnUse">
<stop stop-color="#0052CC"/>
<stop offset="0.923" stop-color="#2684FF"/>
</linearGradient>
<linearGradient id="paint1_linear_1_2" x1="111.56" y1="274.784" x2="111.56" y2="251.985" gradientUnits="userSpaceOnUse">
<stop stop-color="#0052CC"/>
<stop offset="1" stop-color="#2684FF"/>
</linearGradient>
<linearGradient id="paint2_linear_1_2" x1="253.737" y1="105.022" x2="268.394" y2="105.022" gradientUnits="userSpaceOnUse">
<stop stop-color="#F8F6EF"/>
<stop offset="1" stop-color="#E7E4D6"/>
</linearGradient>
<linearGradient id="paint3_linear_1_2" x1="253.737" y1="105.022" x2="268.394" y2="105.022" gradientUnits="userSpaceOnUse">
<stop stop-color="#F8F6EF"/>
<stop offset="1" stop-color="#E7E4D6"/>
</linearGradient>
<linearGradient id="paint4_linear_1_2" x1="253.737" y1="105.022" x2="268.394" y2="105.022" gradientUnits="userSpaceOnUse">
<stop stop-color="#F8F6EF"/>
<stop offset="1" stop-color="#E7E4D6"/>
</linearGradient>
<linearGradient id="paint5_linear_1_2" x1="253.737" y1="105.022" x2="268.394" y2="105.022" gradientUnits="userSpaceOnUse">
<stop stop-color="#F8F6EF"/>
<stop offset="1" stop-color="#E7E4D6"/>
</linearGradient>
<linearGradient id="paint6_linear_1_2" x1="253.737" y1="105.022" x2="268.394" y2="105.022" gradientUnits="userSpaceOnUse">
<stop stop-color="#F8F6EF"/>
<stop offset="1" stop-color="#E7E4D6"/>
</linearGradient>
<linearGradient id="paint7_linear_1_2" x1="253.737" y1="105.022" x2="268.394" y2="105.022" gradientUnits="userSpaceOnUse">
<stop stop-color="#F8F6EF"/>
<stop offset="1" stop-color="#E7E4D6"/>
</linearGradient>
<linearGradient id="paint8_linear_1_2" x1="253.737" y1="105.022" x2="268.394" y2="105.022" gradientUnits="userSpaceOnUse">
<stop stop-color="#F8F6EF"/>
<stop offset="1" stop-color="#E7E4D6"/>
</linearGradient>
<linearGradient id="paint9_linear_1_2" x1="253.737" y1="105.022" x2="268.394" y2="105.022" gradientUnits="userSpaceOnUse">
<stop stop-color="#F8F6EF"/>
<stop offset="1" stop-color="#E7E4D6"/>
</linearGradient>
</defs>
</svg>
