<svg width="78" height="111" viewBox="0 0 78 111" fill="none" xmlns="http://www.w3.org/2000/svg">
<path d="M0.51149 106.32C0.694565 106.371 0.901718 106.324 1.04349 106.177C3.21124 103.961 5.31982 101.633 7.31171 99.2581C7.50417 99.0297 7.47493 98.6868 7.24397 98.4935C7.013 98.3003 6.67265 98.3302 6.47947 98.5611C4.50454 100.915 2.41626 103.221 0.268082 105.417C0.0594864 105.632 0.0637207 105.974 0.275841 106.185C0.34465 106.252 0.425179 106.296 0.51149 106.32Z" fill="black"/>
<path d="M0.695183 106.399C0.75795 106.416 0.823608 106.423 0.890259 106.416C12.8257 105.267 24.7298 100.129 34.4137 91.9487C42.5676 85.0605 48.8603 76.2569 52.5139 66.736C58.1341 66.5536 63.8753 64.1164 68.2716 59.8921C73.2265 55.1325 76.5503 48.1945 77.6325 40.3533C79.7256 25.1637 72.7383 8.98733 60.2445 0.100663C59.9999 -0.0738085 59.6602 -0.0155957 59.4884 0.229699C59.314 0.474272 59.3722 0.814035 59.6175 0.985891C71.7917 9.6436 78.6008 25.4049 76.5619 40.2042C75.5126 47.8039 72.3041 54.5176 67.525 59.1091C63.4354 63.038 58.1402 65.3478 52.9282 65.6317C53.4426 64.2059 53.8967 62.7635 54.2886 61.3124C55.9187 55.2803 56.2035 50.197 55.152 45.7748C53.8205 40.1637 50.1013 35.6075 45.4441 33.88C40.1464 31.9138 33.7432 34.1795 31.4661 38.8227C30.4138 40.9641 30.1042 43.6679 30.5418 46.8566C31.851 56.3852 39.147 64.5857 47.8951 66.3589C49.0276 66.5898 50.1863 66.7155 51.35 66.7412C47.7424 75.9427 41.6209 84.4417 33.7163 91.1201C24.2011 99.158 12.5044 104.207 0.787987 105.338C0.490463 105.366 0.270775 105.632 0.301079 105.93C0.321823 106.161 0.485237 106.344 0.697075 106.402L0.695183 106.399ZM51.7605 65.6611C50.5265 65.6554 49.3045 65.5348 48.1105 65.2925C47.7162 65.2118 47.3255 65.118 46.9384 65.0111C39.1577 62.8633 32.8065 55.3598 31.6164 46.7057C31.2084 43.7362 31.4852 41.2429 32.4405 39.3C34.4842 35.1356 40.264 33.1199 45.068 34.8964C49.3886 36.4972 52.8477 40.7621 54.0955 46.0236C55.1006 50.2669 54.822 55.1746 53.2383 61.0281C52.8169 62.5865 52.3227 64.1332 51.7605 65.6611Z" fill="black"/>
<path d="M7.71738 110.98C7.91093 111.034 8.12619 110.978 8.26895 110.817C8.46591 110.593 8.44526 110.25 8.22169 110.05C6.21046 108.27 3.9221 106.873 1.42217 105.896C1.24676 105.828 1.05115 105.751 0.991447 105.662C0.8237 105.413 0.486221 105.351 0.237312 105.518C-0.0115967 105.686 -0.0737381 106.023 0.0940094 106.272C0.341843 106.639 0.738297 106.794 1.02779 106.907C3.40841 107.838 5.58846 109.168 7.50239 110.862C7.56551 110.919 7.63965 110.956 7.71811 110.978L7.71738 110.98Z" fill="black"/>
</svg>
